M48
METRIC,0000.00
T01C0.8
T02C0.9
T03C1.0
T04C1.1
T05C1.2
T06C2.6
T07C3.5
T08C4.2
%
T01
X-001900Y+003020
X-002150Y+002520
X-003160Y+002870
X+001150Y+002990
X+001150Y+004590
X+001150Y+007840
X+002250Y+007870
X+002260Y+008455
X+002290Y+008990
X+002530Y+009360
X+003000Y+007340
X+000390Y+009000
X-000120Y+008710
X-000850Y+008740
X-000840Y+009640
X-001880Y+009640
X-002200Y+008600
T02
X+002090Y+006940
X+002590Y+006940
X+001454Y+006848
X+000946Y+006848
X+000946Y+007356
X+001454Y+007356
X+001860Y+005890
X+002700Y+005064
X+002700Y+004810
X+002700Y+004048
X+002700Y+003540
X+001700Y+004540
T03
X+002100Y+002340
X+002250Y+003380
X+000000Y+003380
X-000150Y+002340
X-002810Y+001510
X-002810Y+003760
X+001805Y+008979
X+002008Y+008979
X+001907Y+009487
T04
X+002850Y+002140
X+002550Y+002890
X+000050Y+005140
X+000050Y+006640
X+000050Y+007140
X-002450Y+007140
X-002950Y+008540
X-002950Y+009040
X-002450Y+005140
T05
X-001250Y+002040
X-000942Y+001140
X-000314Y+001140
X+000314Y+001140
X+000942Y+001140
X+001570Y+001140
X-001570Y+001140
X-001250Y+003540
T06
X-001250Y+002790
T07
X-003100Y+000440
X+003100Y+000440
X+003100Y+009590
X-003050Y+009740
T08
X+000600Y+006140
X-003000Y+006140
T00
M30
