G04 DipTrace 2.4.0.2*
%INPanimon_kello_PCB.GTO*%
%MOMM*%
%ADD10C,0.25*%
%ADD17C,0.2*%
%ADD25O,0.399X0.4*%
%ADD33O,0.8X0.8*%
%ADD34O,0.391X0.392*%
%ADD36C,0.55*%
%ADD107C,0.157*%
%FSLAX53Y53*%
G04*
G71*
G90*
G75*
G01*
%LNTopSilk*%
%LPD*%
X22750Y28400D2*
D10*
X-3250D1*
Y18400D1*
X22750D1*
Y28400D1*
X3400Y84950D2*
X2200D1*
X11100Y85250D2*
X12300D1*
X29650Y69400D2*
G02X29650Y69400I-6250J0D01*
G01*
X18905Y68770D2*
Y70030D1*
X18275Y69400D2*
X19535D1*
X17950Y75100D2*
X16950D1*
Y76650D1*
X17950D1*
Y75100D1*
X-7800Y93750D2*
X-9000D1*
X3300Y92450D2*
X4500D1*
X-33100Y39350D2*
X-23100D1*
Y13350D1*
X-33100D1*
Y39350D1*
X15300Y43150D2*
X20300D1*
Y61150D1*
X15300D1*
Y43150D1*
X-22470Y96900D2*
X-20470D1*
Y96100D1*
X-22470D1*
Y96900D1*
X-25770D2*
X-23770D1*
Y96100D1*
X-25770D1*
Y96900D1*
X-19100Y83250D2*
X-21800D1*
Y83450D1*
Y84950D2*
Y84750D1*
D25*
X-18450Y83300D3*
X-21800Y84950D2*
D10*
X-19100D1*
Y84750D1*
Y83250D2*
Y83450D1*
X10000Y75018D2*
G02X14000Y75018I2000J-3745D01*
G01*
X16000Y73118D2*
G02X16000Y68918I-4156J-2100D01*
G01*
X14000Y67018D2*
G02X10100Y66918I-2052J3956D01*
G01*
X7900Y69218D2*
G02X8000Y73018I3851J1799D01*
G01*
X-17000Y16400D2*
X-8000D1*
Y39400D1*
X-17000D1*
Y16400D1*
X24000Y18850D2*
Y27650D1*
Y18850D2*
X29900D1*
X24000Y31450D2*
X29900D1*
X24000D2*
Y30150D1*
X29900Y18850D2*
Y20150D1*
X29800Y31450D2*
Y22750D1*
X30700Y33770D2*
X25200D1*
Y52270D1*
X30700D1*
Y33770D1*
X-17750Y32200D2*
X-22750D1*
Y23200D1*
X-17750D1*
Y32200D1*
X-14830Y95300D2*
X-10229D1*
Y88800D1*
X-14830D1*
Y95300D1*
D33*
X-15730Y89350D3*
G36*
X-14830Y88850D2*
X-13630D1*
X-14830Y90050D1*
Y89850D1*
Y88850D1*
G37*
D34*
X32884Y65974D3*
X32650Y64700D2*
D10*
X29650D1*
Y64200D1*
X32650D1*
Y64700D1*
X3500Y36300D2*
D36*
X19000D1*
Y31300D1*
X3500D1*
Y36300D1*
X-14450Y83450D2*
D10*
X-16100D1*
X-14450Y84750D2*
X-16050D1*
X-23850Y91650D2*
Y93300D1*
X-22550Y91650D2*
Y93250D1*
X14650Y65050D2*
X16300D1*
X14650Y63750D2*
X16250D1*
X-15750Y93150D2*
Y91500D1*
X-17050Y93150D2*
Y91550D1*
X29800Y78900D2*
Y77250D1*
X28500Y78900D2*
Y77300D1*
X31500D2*
Y78950D1*
X32800Y77300D2*
Y78900D1*
X-18150Y93150D2*
Y91500D1*
X-19450Y93150D2*
Y91550D1*
X-29501Y81900D2*
X5501D1*
Y40900D1*
X-29501D1*
Y81900D1*
X5460Y94250D2*
X14160D1*
Y90450D1*
X5460D1*
Y94250D1*
X5510Y90950D2*
X14110D1*
G36*
X5510D2*
Y91950D1*
X6510Y90950D1*
D1*
X5510D1*
G37*
X-6840Y94450D2*
D10*
X1860D1*
Y90650D1*
X-6840D1*
Y94450D1*
X-6790Y91150D2*
X1810D1*
G36*
X-6790D2*
Y92150D1*
X-5790Y91150D1*
D1*
X-6790D1*
G37*
X-19400Y800D2*
D10*
X19400D1*
Y14800D1*
X-19400D1*
Y800D1*
X-4900Y9700D2*
X-1401D1*
Y1100D1*
X-4900D1*
Y9700D1*
X1401D2*
X4900D1*
Y1100D1*
X1401D1*
Y9700D1*
X7702D2*
X11202D1*
Y1100D1*
X7702D1*
Y9700D1*
X13999Y9600D2*
X17499D1*
Y1000D1*
X13999D1*
Y9600D1*
X-11202Y9700D2*
X-7702D1*
Y1100D1*
X-11202D1*
Y9700D1*
X-17402D2*
X-13898D1*
Y1100D1*
X-17402D1*
Y9700D1*
X15250Y83100D2*
X21750D1*
Y80200D1*
X15250D1*
Y83100D1*
X-25400Y92900D2*
X-33600D1*
Y82900D1*
X-25400D1*
Y92900D1*
X-32800Y91600D2*
X-33600D1*
Y89200D1*
X-32800D1*
Y91600D1*
Y86600D2*
X-33600D1*
Y84200D1*
X-32800D1*
Y86600D1*
X6400Y86700D2*
X8200D1*
X6400Y83600D2*
X8200D1*
X9800Y85300D2*
Y84900D1*
X4800Y85300D2*
Y84900D1*
X-26900Y7200D2*
D17*
G02X-23900Y7200I1500J0D01*
G01*
X-26400Y7500D2*
X-24400D1*
X-26000Y7100D2*
X-24800D1*
X-25600Y6700D2*
X-25200D1*
X-25400Y8400D2*
Y7500D1*
X-464Y29845D2*
D107*
X-513Y29942D1*
X-610Y30040D1*
X-707Y30088D1*
X-901D1*
X-999Y30040D1*
X-1095Y29942D1*
X-1145Y29845D1*
X-1193Y29699D1*
Y29456D1*
X-1145Y29311D1*
X-1095Y29213D1*
X-999Y29116D1*
X-901Y29067D1*
X-707D1*
X-610Y29116D1*
X-513Y29213D1*
X-464Y29311D1*
X-151Y29892D2*
X-53Y29942D1*
X93Y30087D1*
Y29067D1*
X2555Y87417D2*
X2458Y87369D1*
X2360Y87271D1*
X2312Y87175D1*
Y86980D1*
X2360Y86883D1*
X2458Y86786D1*
X2555Y86737D1*
X2701Y86688D1*
X2944D1*
X3089Y86737D1*
X3187Y86786D1*
X3284Y86883D1*
X3333Y86980D1*
Y87175D1*
X3284Y87271D1*
X3187Y87369D1*
X3089Y87417D1*
X2556Y87780D2*
X2508D1*
X2410Y87829D1*
X2362Y87877D1*
X2313Y87975D1*
Y88169D1*
X2362Y88266D1*
X2410Y88314D1*
X2508Y88363D1*
X2604D1*
X2702Y88314D1*
X2847Y88217D1*
X3333Y87731D1*
Y88412D1*
X11605Y82467D2*
X11508Y82419D1*
X11410Y82321D1*
X11362Y82225D1*
Y82030D1*
X11410Y81933D1*
X11508Y81836D1*
X11605Y81787D1*
X11751Y81738D1*
X11994D1*
X12139Y81787D1*
X12237Y81836D1*
X12334Y81933D1*
X12383Y82030D1*
Y82225D1*
X12334Y82321D1*
X12237Y82419D1*
X12139Y82467D1*
X11363Y82879D2*
Y83412D1*
X11752Y83121D1*
Y83267D1*
X11800Y83364D1*
X11848Y83412D1*
X11994Y83462D1*
X12091D1*
X12237Y83412D1*
X12335Y83316D1*
X12383Y83170D1*
Y83024D1*
X12335Y82879D1*
X12285Y82830D1*
X12189Y82781D1*
X23292Y76895D2*
X23244Y76992D1*
X23146Y77090D1*
X23049Y77138D1*
X22855D1*
X22757Y77090D1*
X22661Y76992D1*
X22611Y76895D1*
X22563Y76749D1*
Y76506D1*
X22611Y76361D1*
X22661Y76263D1*
X22757Y76166D1*
X22855Y76117D1*
X23049D1*
X23146Y76166D1*
X23244Y76263D1*
X23292Y76361D1*
X24189Y76992D2*
X24140Y77088D1*
X23994Y77137D1*
X23898D1*
X23752Y77088D1*
X23654Y76942D1*
X23606Y76700D1*
Y76457D1*
X23654Y76263D1*
X23752Y76165D1*
X23898Y76117D1*
X23946D1*
X24091Y76165D1*
X24189Y76263D1*
X24237Y76409D1*
Y76457D1*
X24189Y76603D1*
X24091Y76700D1*
X23946Y76748D1*
X23898D1*
X23752Y76700D1*
X23654Y76603D1*
X23606Y76457D1*
X13867Y76695D2*
X13819Y76792D1*
X13721Y76890D1*
X13625Y76938D1*
X13430D1*
X13333Y76890D1*
X13236Y76792D1*
X13187Y76695D1*
X13138Y76549D1*
Y76306D1*
X13187Y76161D1*
X13236Y76063D1*
X13333Y75966D1*
X13430Y75917D1*
X13625D1*
X13721Y75966D1*
X13819Y76063D1*
X13867Y76161D1*
X14375Y75917D2*
X14862Y76937D1*
X14181D1*
X-8745Y90718D2*
X-8842Y90670D1*
X-8940Y90572D1*
X-8988Y90475D1*
Y90281D1*
X-8940Y90183D1*
X-8842Y90087D1*
X-8745Y90037D1*
X-8599Y89989D1*
X-8356D1*
X-8211Y90037D1*
X-8113Y90087D1*
X-8016Y90183D1*
X-7967Y90281D1*
Y90475D1*
X-8016Y90572D1*
X-8113Y90670D1*
X-8211Y90718D1*
X-8987Y91274D2*
X-8938Y91129D1*
X-8842Y91080D1*
X-8744D1*
X-8648Y91129D1*
X-8598Y91226D1*
X-8550Y91420D1*
X-8502Y91566D1*
X-8404Y91663D1*
X-8307Y91711D1*
X-8161D1*
X-8065Y91663D1*
X-8015Y91614D1*
X-7967Y91468D1*
Y91274D1*
X-8015Y91129D1*
X-8065Y91080D1*
X-8161Y91032D1*
X-8307D1*
X-8404Y91080D1*
X-8502Y91178D1*
X-8550Y91322D1*
X-8598Y91517D1*
X-8648Y91614D1*
X-8744Y91663D1*
X-8842D1*
X-8938Y91614D1*
X-8987Y91468D1*
Y91274D1*
X3555Y94941D2*
X3458Y94893D1*
X3360Y94795D1*
X3312Y94699D1*
Y94505D1*
X3360Y94407D1*
X3458Y94310D1*
X3555Y94261D1*
X3701Y94213D1*
X3944D1*
X4089Y94261D1*
X4187Y94310D1*
X4284Y94407D1*
X4333Y94505D1*
Y94699D1*
X4284Y94795D1*
X4187Y94893D1*
X4089Y94941D1*
X3652Y95887D2*
X3798Y95838D1*
X3896Y95741D1*
X3944Y95595D1*
Y95547D1*
X3896Y95401D1*
X3798Y95305D1*
X3652Y95255D1*
X3604D1*
X3458Y95305D1*
X3362Y95401D1*
X3313Y95547D1*
Y95595D1*
X3362Y95741D1*
X3458Y95838D1*
X3652Y95887D1*
X3896D1*
X4139Y95838D1*
X4285Y95741D1*
X4333Y95595D1*
Y95499D1*
X4285Y95353D1*
X4187Y95305D1*
X-37638Y35595D2*
X-37687Y35692D1*
X-37784Y35790D1*
X-37881Y35838D1*
X-38075D1*
X-38173Y35790D1*
X-38270Y35692D1*
X-38319Y35595D1*
X-38367Y35449D1*
Y35206D1*
X-38319Y35061D1*
X-38270Y34963D1*
X-38173Y34866D1*
X-38075Y34817D1*
X-37881D1*
X-37784Y34866D1*
X-37687Y34963D1*
X-37638Y35061D1*
X-37325Y35498D2*
X-36790Y34817D1*
Y35498D2*
X-37325Y34817D1*
X-36476Y35642D2*
X-36379Y35692D1*
X-36233Y35837D1*
Y34817D1*
X6294Y58995D2*
X6246Y59092D1*
X6148Y59190D1*
X6052Y59238D1*
X5857D1*
X5760Y59190D1*
X5663Y59092D1*
X5614Y58995D1*
X5565Y58849D1*
Y58606D1*
X5614Y58461D1*
X5663Y58363D1*
X5760Y58266D1*
X5857Y58217D1*
X6052D1*
X6148Y58266D1*
X6246Y58363D1*
X6294Y58461D1*
X6657Y58898D2*
X6948Y58217D1*
X6852Y58023D1*
X6754Y57925D1*
X6657Y57877D1*
X6608D1*
X7240Y58898D2*
X6948Y58217D1*
X7652Y59237D2*
X8185D1*
X7894Y58848D1*
X8040D1*
X8137Y58800D1*
X8185Y58752D1*
X8235Y58606D1*
Y58509D1*
X8185Y58363D1*
X8089Y58265D1*
X7943Y58217D1*
X7797D1*
X7652Y58265D1*
X7603Y58315D1*
X7554Y58411D1*
X-21858Y93181D2*
X-20837D1*
Y93521D1*
X-20886Y93667D1*
X-20983Y93765D1*
X-21081Y93813D1*
X-21226Y93862D1*
X-21469D1*
X-21615Y93813D1*
X-21712Y93765D1*
X-21810Y93667D1*
X-21858Y93521D1*
Y93181D1*
X-21662Y94175D2*
X-21712Y94273D1*
X-21857Y94419D1*
X-20837D1*
X-27058Y93363D2*
X-26037D1*
Y93703D1*
X-26086Y93849D1*
X-26183Y93947D1*
X-26281Y93995D1*
X-26426Y94043D1*
X-26669D1*
X-26815Y93995D1*
X-26912Y93947D1*
X-27010Y93849D1*
X-27058Y93703D1*
Y93363D1*
X-26814Y94406D2*
X-26862D1*
X-26960Y94455D1*
X-27008Y94503D1*
X-27057Y94601D1*
Y94795D1*
X-27008Y94891D1*
X-26960Y94940D1*
X-26862Y94989D1*
X-26766D1*
X-26668Y94940D1*
X-26523Y94843D1*
X-26037Y94357D1*
Y95037D1*
X-21287Y86688D2*
Y85667D1*
X-20947D1*
X-20801Y85716D1*
X-20703Y85813D1*
X-20655Y85911D1*
X-20607Y86056D1*
Y86299D1*
X-20655Y86445D1*
X-20703Y86542D1*
X-20801Y86640D1*
X-20947Y86688D1*
X-21287D1*
X-20195Y86687D2*
X-19662D1*
X-19953Y86298D1*
X-19807D1*
X-19710Y86250D1*
X-19662Y86202D1*
X-19613Y86056D1*
Y85959D1*
X-19662Y85813D1*
X-19759Y85715D1*
X-19905Y85667D1*
X-20051D1*
X-20195Y85715D1*
X-20244Y85765D1*
X-20293Y85861D1*
X6638Y76306D2*
Y75286D1*
X6979D1*
X7125Y75335D1*
X7222Y75432D1*
X7271Y75529D1*
X7319Y75674D1*
Y75918D1*
X7271Y76064D1*
X7222Y76160D1*
X7125Y76258D1*
X6979Y76306D1*
X6638D1*
X8119Y75286D2*
Y76305D1*
X7633Y75626D1*
X8362D1*
X-12463Y40888D2*
X-13095D1*
Y39867D1*
Y40402D2*
X-12706D1*
X-12149Y40692D2*
X-12051Y40742D1*
X-11905Y40887D1*
Y39867D1*
X31319Y25738D2*
X30687D1*
Y24717D1*
Y25252D2*
X31075D1*
X31682Y25494D2*
Y25542D1*
X31730Y25640D1*
X31779Y25688D1*
X31876Y25737D1*
X32071D1*
X32167Y25688D1*
X32216Y25640D1*
X32265Y25542D1*
Y25446D1*
X32216Y25348D1*
X32119Y25203D1*
X31633Y24717D1*
X32313D1*
X38031Y49558D2*
Y48537D1*
X38712Y49558D2*
X38031Y48877D1*
X38274Y49121D2*
X38712Y48537D1*
X39025Y49362D2*
X39123Y49412D1*
X39269Y49557D1*
Y48537D1*
X-26426Y29988D2*
X-26522Y29941D1*
X-26620Y29843D1*
X-26668Y29745D1*
X-26718Y29599D1*
Y29357D1*
X-26668Y29211D1*
X-26620Y29114D1*
X-26522Y29016D1*
X-26426Y28968D1*
X-26232D1*
X-26134Y29016D1*
X-26037Y29114D1*
X-25989Y29211D1*
X-25940Y29357D1*
Y29599D1*
X-25989Y29745D1*
X-26037Y29843D1*
X-26134Y29941D1*
X-26232Y29988D1*
X-26426D1*
X-26280Y29162D2*
X-25989Y28870D1*
X-25626Y29792D2*
X-25528Y29842D1*
X-25382Y29987D1*
Y28967D1*
X-16674Y95888D2*
X-16771Y95841D1*
X-16869Y95743D1*
X-16917Y95645D1*
X-16966Y95499D1*
Y95257D1*
X-16917Y95111D1*
X-16869Y95014D1*
X-16771Y94916D1*
X-16674Y94868D1*
X-16480D1*
X-16382Y94916D1*
X-16286Y95014D1*
X-16237Y95111D1*
X-16188Y95257D1*
Y95499D1*
X-16237Y95645D1*
X-16286Y95743D1*
X-16382Y95841D1*
X-16480Y95888D1*
X-16674D1*
X-16528Y95062D2*
X-16237Y94770D1*
X-15825Y95644D2*
Y95692D1*
X-15777Y95790D1*
X-15728Y95838D1*
X-15631Y95887D1*
X-15436D1*
X-15340Y95838D1*
X-15291Y95790D1*
X-15242Y95692D1*
Y95596D1*
X-15291Y95498D1*
X-15388Y95353D1*
X-15874Y94867D1*
X-15194D1*
X30770Y68057D2*
X30674Y68010D1*
X30576Y67912D1*
X30528Y67815D1*
X30478Y67669D1*
Y67426D1*
X30528Y67280D1*
X30576Y67184D1*
X30674Y67086D1*
X30770Y67038D1*
X30965D1*
X31062Y67086D1*
X31159Y67184D1*
X31207Y67280D1*
X31257Y67426D1*
Y67669D1*
X31207Y67815D1*
X31159Y67912D1*
X31062Y68010D1*
X30965Y68057D1*
X30770D1*
X30916Y67232D2*
X31207Y66940D1*
X32153Y68056D2*
X31668D1*
X31620Y67619D1*
X31668Y67668D1*
X31814Y67717D1*
X31959D1*
X32105Y67668D1*
X32203Y67571D1*
X32251Y67425D1*
Y67328D1*
X32203Y67182D1*
X32105Y67085D1*
X31959Y67036D1*
X31814D1*
X31668Y67085D1*
X31620Y67134D1*
X31570Y67231D1*
X10631Y37302D2*
X11068D1*
X11214Y37351D1*
X11263Y37399D1*
X11312Y37496D1*
Y37594D1*
X11263Y37690D1*
X11214Y37740D1*
X11068Y37788D1*
X10631D1*
Y36767D1*
X10971Y37302D2*
X11312Y36767D1*
X11625Y37592D2*
X11723Y37642D1*
X11869Y37787D1*
Y36767D1*
X-12687Y84502D2*
X-12251D1*
X-12105Y84551D1*
X-12055Y84599D1*
X-12007Y84696D1*
Y84794D1*
X-12055Y84890D1*
X-12105Y84940D1*
X-12251Y84988D1*
X-12687D1*
Y83967D1*
X-12347Y84502D2*
X-12007Y83967D1*
X-11644Y84744D2*
Y84792D1*
X-11595Y84890D1*
X-11547Y84938D1*
X-11449Y84987D1*
X-11255D1*
X-11159Y84938D1*
X-11110Y84890D1*
X-11061Y84792D1*
Y84696D1*
X-11110Y84598D1*
X-11207Y84453D1*
X-11693Y83967D1*
X-11013D1*
X-23202Y88513D2*
Y88949D1*
X-23251Y89095D1*
X-23299Y89145D1*
X-23396Y89193D1*
X-23494D1*
X-23590Y89145D1*
X-23640Y89095D1*
X-23688Y88949D1*
Y88513D1*
X-22667D1*
X-23202Y88853D2*
X-22667Y89193D1*
X-23687Y89605D2*
Y90138D1*
X-23298Y89847D1*
Y89993D1*
X-23250Y90090D1*
X-23202Y90138D1*
X-23056Y90187D1*
X-22959D1*
X-22813Y90138D1*
X-22715Y90041D1*
X-22667Y89895D1*
Y89749D1*
X-22715Y89605D1*
X-22765Y89556D1*
X-22861Y89507D1*
X11437Y64402D2*
X11874D1*
X12020Y64451D1*
X12070Y64499D1*
X12118Y64596D1*
Y64694D1*
X12070Y64790D1*
X12020Y64840D1*
X11874Y64888D1*
X11437D1*
Y63867D1*
X11778Y64402D2*
X12118Y63867D1*
X13014Y64742D2*
X12966Y64838D1*
X12820Y64887D1*
X12724D1*
X12578Y64838D1*
X12480Y64692D1*
X12432Y64450D1*
Y64207D1*
X12480Y64013D1*
X12578Y63915D1*
X12724Y63867D1*
X12772D1*
X12917Y63915D1*
X13014Y64013D1*
X13063Y64159D1*
Y64207D1*
X13014Y64353D1*
X12917Y64450D1*
X12772Y64498D1*
X12724D1*
X12578Y64450D1*
X12480Y64353D1*
X12432Y64207D1*
X-17002Y88013D2*
Y88450D1*
X-17051Y88596D1*
X-17099Y88645D1*
X-17196Y88694D1*
X-17294D1*
X-17390Y88645D1*
X-17440Y88596D1*
X-17488Y88450D1*
Y88013D1*
X-16467D1*
X-17002Y88353D2*
X-16467Y88694D1*
X-17487Y89250D2*
X-17438Y89105D1*
X-17342Y89056D1*
X-17244D1*
X-17148Y89105D1*
X-17098Y89202D1*
X-17050Y89396D1*
X-17002Y89542D1*
X-16904Y89639D1*
X-16807Y89687D1*
X-16661D1*
X-16565Y89639D1*
X-16515Y89590D1*
X-16467Y89444D1*
Y89250D1*
X-16515Y89105D1*
X-16565Y89056D1*
X-16661Y89007D1*
X-16807D1*
X-16904Y89056D1*
X-17002Y89153D1*
X-17050Y89298D1*
X-17098Y89493D1*
X-17148Y89590D1*
X-17244Y89639D1*
X-17342D1*
X-17438Y89590D1*
X-17487Y89444D1*
Y89250D1*
X29048Y81087D2*
Y81524D1*
X28999Y81670D1*
X28951Y81719D1*
X28854Y81767D1*
X28756D1*
X28660Y81719D1*
X28610Y81670D1*
X28562Y81524D1*
Y81087D1*
X29583D1*
X29048Y81427D2*
X29583Y81767D1*
X28902Y82713D2*
X29048Y82664D1*
X29146Y82567D1*
X29194Y82421D1*
Y82373D1*
X29146Y82227D1*
X29048Y82130D1*
X28902Y82081D1*
X28854D1*
X28708Y82130D1*
X28612Y82227D1*
X28563Y82373D1*
Y82421D1*
X28612Y82567D1*
X28708Y82664D1*
X28902Y82713D1*
X29146D1*
X29389Y82664D1*
X29535Y82567D1*
X29583Y82421D1*
Y82325D1*
X29535Y82179D1*
X29437Y82130D1*
X32048Y80834D2*
Y81271D1*
X31999Y81417D1*
X31951Y81466D1*
X31854Y81514D1*
X31756D1*
X31660Y81466D1*
X31610Y81417D1*
X31562Y81271D1*
Y80834D1*
X32583D1*
X32048Y81174D2*
X32583Y81514D1*
X31758Y81828D2*
X31708Y81926D1*
X31563Y82072D1*
X32583D1*
X31563Y82678D2*
X31612Y82532D1*
X31758Y82434D1*
X32000Y82386D1*
X32146D1*
X32389Y82434D1*
X32535Y82532D1*
X32583Y82678D1*
Y82774D1*
X32535Y82920D1*
X32389Y83017D1*
X32146Y83066D1*
X32000D1*
X31758Y83017D1*
X31612Y82920D1*
X31563Y82774D1*
Y82678D1*
X31758Y83017D2*
X32389Y82434D1*
X-18902Y87852D2*
Y88289D1*
X-18951Y88435D1*
X-18999Y88485D1*
X-19096Y88533D1*
X-19194D1*
X-19290Y88485D1*
X-19340Y88435D1*
X-19388Y88289D1*
Y87852D1*
X-18367D1*
X-18902Y88193D2*
X-18367Y88533D1*
X-19192Y88847D2*
X-19242Y88944D1*
X-19387Y89090D1*
X-18367D1*
X-19192Y89404D2*
X-19242Y89502D1*
X-19387Y89648D1*
X-18367D1*
X-6079Y83688D2*
Y82667D1*
X-6419Y83688D2*
X-5738D1*
X-5425Y83492D2*
X-5327Y83542D1*
X-5181Y83687D1*
Y82667D1*
X9191Y97838D2*
Y97109D1*
X9239Y96963D1*
X9337Y96866D1*
X9483Y96817D1*
X9580D1*
X9726Y96866D1*
X9823Y96963D1*
X9872Y97109D1*
Y97838D1*
X10185Y97642D2*
X10283Y97692D1*
X10429Y97837D1*
Y96817D1*
X-3327Y98038D2*
Y97309D1*
X-3279Y97163D1*
X-3181Y97066D1*
X-3035Y97017D1*
X-2939D1*
X-2793Y97066D1*
X-2695Y97163D1*
X-2647Y97309D1*
Y98038D1*
X-2284Y97794D2*
Y97842D1*
X-2235Y97940D1*
X-2187Y97988D1*
X-2089Y98037D1*
X-1895D1*
X-1799Y97988D1*
X-1750Y97940D1*
X-1701Y97842D1*
Y97746D1*
X-1750Y97648D1*
X-1847Y97503D1*
X-2333Y97017D1*
X-1653D1*
X-837Y16288D2*
Y15559D1*
X-789Y15413D1*
X-691Y15316D1*
X-545Y15267D1*
X-449D1*
X-303Y15316D1*
X-205Y15413D1*
X-157Y15559D1*
Y16288D1*
X255Y16287D2*
X788D1*
X497Y15898D1*
X643D1*
X740Y15850D1*
X788Y15802D1*
X837Y15656D1*
Y15559D1*
X788Y15413D1*
X691Y15315D1*
X545Y15267D1*
X399D1*
X255Y15315D1*
X206Y15365D1*
X157Y15461D1*
X22238Y82188D2*
Y81459D1*
X22287Y81313D1*
X22384Y81216D1*
X22530Y81167D1*
X22627D1*
X22773Y81216D1*
X22871Y81313D1*
X22919Y81459D1*
Y82188D1*
X23719Y81167D2*
Y82187D1*
X23233Y81507D1*
X23962D1*
X18228Y97258D2*
X18908Y96237D1*
Y97258D2*
X18228Y96237D1*
X19271Y97014D2*
Y97062D1*
X19320Y97160D1*
X19368Y97208D1*
X19466Y97257D1*
X19660D1*
X19756Y97208D1*
X19805Y97160D1*
X19854Y97062D1*
Y96966D1*
X19805Y96868D1*
X19708Y96723D1*
X19222Y96237D1*
X19902D1*
X-24862Y87788D2*
X-24181Y86767D1*
Y87788D2*
X-24862Y86767D1*
X-23381D2*
Y87787D1*
X-23867Y87107D1*
X-23138D1*
X6681Y82988D2*
X7362D1*
X6681Y81967D1*
X7362D1*
X7675Y82792D2*
X7773Y82842D1*
X7919Y82987D1*
Y81967D1*
M02*
