G04 DipTrace 2.4.0.2*
%INPanimon_kello_PCB.GTS*%
%MOMM*%
%ADD14C,1.0*%
%ADD28C,2.5*%
%ADD37R,2.5X2.5*%
%ADD50C,2.6*%
%ADD51C,4.2*%
%ADD52C,3.5*%
%ADD56C,2.2*%
%ADD58R,1.7X1.4*%
%ADD60O,3.2X2.7*%
%ADD62R,3.2X2.7*%
%ADD64C,0.987*%
%ADD66R,1.2X2.4*%
%ADD68R,3.5X2.4*%
%ADD70R,0.8X1.9*%
%ADD74R,1.8X1.1*%
%ADD76R,1.1X1.8*%
%ADD78R,2.7X2.7*%
%ADD79R,0.85X1.25*%
%ADD81C,2.2*%
%ADD83O,2.8X2.0*%
%ADD85O,3.2X3.0*%
%ADD87R,3.2X3.0*%
%ADD89C,2.7*%
%ADD90R,2.8X2.8*%
%ADD92R,1.7X1.1*%
%ADD94R,0.5X1.3*%
%ADD96C,3.2*%
%ADD97C,2.8*%
%ADD98R,1.4X2.0*%
%ADD100C,1.7*%
%ADD102R,1.7X1.7*%
%ADD104R,1.6X1.3*%
%FSLAX53Y53*%
G04*
G71*
G90*
G75*
G01*
%LNTopMask*%
%LPD*%
D56*
X3900Y90000D3*
X22600Y84550D3*
X-8400Y96400D3*
X25300Y93600D3*
X-18800Y96400D3*
X-8400D3*
X-18800D3*
X22500Y78700D3*
X22900Y89900D3*
X-8500Y87400D3*
X-22000Y86000D3*
X30000Y73400D3*
X11500Y78400D3*
X-1200Y87100D3*
X-31600Y28700D3*
X11500Y29900D3*
Y45900D3*
D97*
X21000Y23400D3*
X-1500D3*
D104*
X2800Y85800D3*
Y84100D3*
X11700Y84400D3*
Y86100D3*
D102*
X20900Y69400D3*
D100*
X25900D3*
D98*
X18900Y75900D3*
X16000D3*
D104*
X-8400Y94600D3*
Y92900D3*
X3900Y91600D3*
Y93300D3*
D97*
X-28100Y37600D3*
Y15100D3*
D96*
X17000Y45400D3*
X18600Y58900D3*
D94*
X-22140Y95400D3*
X-20800D3*
X-21470Y97600D3*
X-25440Y95400D3*
X-24100D3*
X-24770Y97600D3*
D92*
X-18800Y84100D3*
X-22100D3*
D90*
X9460Y68478D3*
D97*
X14540D3*
Y73558D3*
X9460D3*
D89*
X-12500Y20400D3*
Y35400D3*
D50*
Y27900D3*
D96*
X28500Y21400D3*
X25500Y28900D3*
D87*
X27000Y35400D3*
D85*
Y40480D3*
D83*
Y48100D3*
Y50640D3*
D81*
X-19000Y30200D3*
X-21500Y25200D3*
D98*
X-13800Y87400D3*
X-11260D3*
Y96700D3*
X-13800D3*
D79*
X32100Y65600D3*
X30200D3*
X31150Y63300D3*
D78*
X0Y33800D3*
D89*
X22500D3*
D76*
X-13800Y84100D3*
X-16700D3*
D74*
X-23200Y91000D3*
Y93900D3*
D76*
X14000Y64400D3*
X16900D3*
D74*
X-16400Y93800D3*
Y90900D3*
X29150Y79550D3*
Y76650D3*
X32150D3*
Y79550D3*
X-18800Y93800D3*
Y90900D3*
D37*
X-24500Y71400D3*
D28*
Y51400D3*
X500D3*
Y66400D3*
Y71400D3*
D51*
X6000Y61400D3*
X-30000D3*
D70*
X6000Y89400D3*
X7270D3*
X8540D3*
X9810D3*
X11080D3*
X12350D3*
X13620D3*
Y95300D3*
X12350D3*
X11080D3*
X9810D3*
X8540D3*
X7270D3*
X6000D3*
X-6300Y89600D3*
X-5030D3*
X-3760D3*
X-2490D3*
X-1220D3*
X50D3*
X1320D3*
Y95500D3*
X50D3*
X-1220D3*
X-2490D3*
X-3760D3*
X-5030D3*
X-6300D3*
D96*
X-15700Y11400D3*
X-9420D3*
X-3140D3*
X3140D3*
X9420D3*
X15700D3*
D68*
X18500Y84600D3*
D66*
X16200Y78700D3*
X18500D3*
X20800D3*
D64*
X19700Y93600D3*
Y92330D3*
Y91060D3*
X18430Y93600D3*
Y92330D3*
Y91060D3*
D14*
X19065Y94870D3*
X20081Y89790D3*
X18049D3*
D62*
X-29500Y90400D3*
D60*
Y85400D3*
D58*
X5400Y84000D3*
X9200D3*
Y86200D3*
X5400D3*
D52*
X-31000Y4400D3*
X31000D3*
Y95900D3*
X-30500Y97400D3*
M02*
