G04 DipTrace 2.4.0.2*
%INPanimon_kello_PCB.GTL*%
%MOMM*%
%ADD10C,0.25*%
%ADD13C,0.5*%
%ADD14C,1.0*%
%ADD15C,2.0*%
%ADD16C,0.3*%
%ADD18C,2.6*%
%ADD19R,1.4X1.1*%
%ADD20R,1.5X1.5*%
%ADD21C,1.5*%
%ADD22R,1.2X1.8*%
%ADD23C,3.0*%
%ADD24R,0.3X1.1*%
%ADD26R,1.5X0.9*%
%ADD27R,2.6X2.6*%
%ADD28C,2.5*%
%ADD29R,3.0X2.8*%
%ADD30O,3.0X2.8*%
%ADD31O,2.6X1.8*%
%ADD32C,2.0*%
%ADD35R,0.65X1.05*%
%ADD37R,2.5X2.5*%
%ADD39R,0.9X1.6*%
%ADD40R,1.6X0.9*%
%ADD41R,2.3X2.3*%
%ADD42C,2.3*%
%ADD43R,0.6X1.7*%
%ADD44R,3.3X2.2*%
%ADD45R,1.0X2.2*%
%ADD46C,0.787*%
%ADD47R,3.0X2.5*%
%ADD48O,3.0X2.5*%
%ADD49R,1.5X1.2*%
%FSLAX53Y53*%
G04*
G71*
G90*
G75*
G01*
%LNTop*%
%LPD*%
X18500Y84600D2*
D13*
Y78700D1*
X18900Y75900D2*
X18600Y76200D1*
Y78700D1*
X18500D1*
X3900Y91600D2*
X4000Y91500D1*
X5600D1*
X6000Y91100D1*
Y89400D1*
X-8400Y94600D2*
X-8200Y94400D1*
X-7700D1*
X-6700Y95400D1*
X-6300D1*
Y95500D1*
X3900Y91600D2*
D14*
Y90000D1*
X22600Y84550D2*
X18500D1*
Y84600D1*
X-8400Y94600D2*
Y96400D1*
X19700Y93600D2*
D13*
X25300D1*
X-18800Y96400D2*
Y93800D1*
X-16400D1*
X-21470Y97600D2*
X-19900D1*
X-18800Y96500D1*
Y96400D1*
X20800Y78700D2*
D14*
X22500D1*
X14000Y64400D2*
X11400D1*
X9600Y66200D1*
Y68478D1*
X9460D1*
X30200Y65600D2*
D13*
Y66500D1*
X27300Y69400D1*
X25900D1*
X16200Y78700D2*
D14*
Y75900D1*
X16000D1*
X16100Y75800D1*
Y74800D1*
X14858Y73558D1*
X14540D1*
X19700Y91060D2*
Y91100D1*
D13*
X21700D1*
X22900Y89900D1*
X3900Y93300D2*
X4000Y93200D1*
X5300D1*
X6000Y93900D1*
Y95300D1*
X-8400Y92900D2*
X-3760D1*
X-2490D1*
X-1220D1*
X50D1*
X100D1*
X1320Y91680D1*
Y89600D1*
X-1220D2*
Y92900D1*
X-3760Y89600D2*
Y92900D1*
X-2490Y95500D2*
Y92900D1*
X50Y95500D2*
Y92900D1*
X-11260Y96700D2*
Y94060D1*
X-10100Y92900D1*
X-8400D1*
X-1220Y89600D2*
X-1200Y89580D1*
Y87100D1*
X9200Y86200D2*
Y87300D1*
X8540Y87960D1*
Y89400D1*
X9200Y86200D2*
X9300Y86100D1*
X11700D1*
X5400Y84000D2*
X5500Y84100D1*
X6500D1*
X7270Y84870D1*
Y89400D1*
X5400Y84000D2*
X5300Y84100D1*
X2800D1*
X-11260Y87400D2*
X-8500D1*
X-22100Y84100D2*
X-22000D1*
Y86000D1*
X-18800Y84100D2*
X-16700D1*
X-13800Y87400D2*
Y86000D1*
Y84100D1*
X-16400Y90900D2*
X-15700D1*
X-13800Y92800D1*
Y96700D1*
Y97800D1*
X-13100Y98500D1*
X-6100D1*
X-5030Y97430D1*
Y95500D1*
X18430Y91060D2*
X18390Y91100D1*
X16900D1*
X16100Y91900D1*
X10300D1*
X9810Y91410D1*
Y89400D1*
X19700Y92330D2*
X19770Y92400D1*
X23500D1*
X24800Y91100D1*
Y88900D1*
X23900Y88000D1*
X16100D1*
X14700Y89400D1*
X13620D1*
X-3760Y95500D2*
X-3800Y95540D1*
Y97500D1*
X-3000Y98300D1*
X9000D1*
X9810Y97490D1*
Y95300D1*
X18430Y93600D2*
X18200D1*
X16500Y95300D1*
X13620D1*
X18430Y92330D2*
X18360Y92400D1*
X17600D1*
X16800Y93200D1*
X13000D1*
X12350Y93850D1*
Y95300D1*
X16900Y64400D2*
X22900D1*
X24800Y62500D1*
Y49600D1*
X26300Y48100D1*
X27000D1*
X29150Y79550D2*
X29200Y79600D1*
Y80900D1*
X23200Y86900D1*
X13700D1*
X12350Y88250D1*
Y89400D1*
X-29500Y90400D2*
X-21700D1*
X-18800D1*
Y90900D1*
X-23200Y91000D2*
D16*
Y90400D1*
X-21700D1*
X29150Y76650D2*
D13*
X32150D1*
X32100Y76600D1*
Y65600D1*
X27000Y50640D2*
X27100Y50740D1*
Y60300D1*
X30100Y63300D1*
X31150D1*
X-23200Y93900D2*
Y95400D1*
Y97600D1*
Y98400D1*
X-22200Y99400D1*
X9600D1*
X11080Y97920D1*
Y95300D1*
X-24770Y97600D2*
X-23200D1*
X-22140Y95400D2*
X-23200D1*
D15*
X3900Y90000D3*
X22600Y84550D3*
X-8400Y96400D3*
X25300Y93600D3*
X-18800Y96400D3*
X-8400D3*
X-18800D3*
X22500Y78700D3*
X22900Y89900D3*
X-8500Y87400D3*
X-22000Y86000D3*
X30000Y73400D3*
X11500Y78400D3*
X-1200Y87100D3*
X-31600Y28700D3*
X11500Y29900D3*
Y45900D3*
X-33850Y76028D2*
D10*
X-19648D1*
X-33850Y75782D2*
X-19648D1*
X-33850Y75535D2*
X-28808D1*
X-20192D2*
X-19648D1*
X-33850Y75288D2*
X-28808D1*
X-20192D2*
X-19648D1*
X-33850Y75042D2*
X-28808D1*
X-20192D2*
X-19648D1*
X-33850Y74795D2*
X-28808D1*
X-20192D2*
X-19648D1*
X-33850Y74548D2*
X-28808D1*
X-20192D2*
X-19648D1*
X-33850Y74302D2*
X-28808D1*
X-20192D2*
X-19648D1*
X-33850Y74055D2*
X-28808D1*
X-20192D2*
X-19648D1*
X-33850Y73808D2*
X-28808D1*
X-20192D2*
X-19648D1*
X-33850Y73562D2*
X-28808D1*
X-20192D2*
X-19648D1*
X-33850Y73315D2*
X-28808D1*
X-20192D2*
X-19648D1*
X-33850Y73068D2*
X-28808D1*
X-20192D2*
X-19648D1*
X-33850Y72822D2*
X-28808D1*
X-20192D2*
X-19648D1*
X-33850Y72575D2*
X-28808D1*
X-20192D2*
X-19648D1*
X-33850Y72328D2*
X-28808D1*
X-20192D2*
X-19648D1*
X-33850Y72082D2*
X-28808D1*
X-20192D2*
X-19648D1*
X-33850Y71835D2*
X-28808D1*
X-20192D2*
X-19648D1*
X-33850Y71588D2*
X-28808D1*
X-20192D2*
X-19648D1*
X-33850Y71342D2*
X-28808D1*
X-20192D2*
X-19648D1*
X-33850Y71095D2*
X-28808D1*
X-20192D2*
X-19648D1*
X-33850Y70848D2*
X-28808D1*
X-20192D2*
X-19648D1*
X-33850Y70602D2*
X-28808D1*
X-20192D2*
X-19648D1*
X-33850Y70355D2*
X-28808D1*
X-20192D2*
X-19648D1*
X-33850Y70108D2*
X-28808D1*
X-20192D2*
X-19648D1*
X-33850Y69862D2*
X-28808D1*
X-20192D2*
X-19648D1*
X-33850Y69615D2*
X-28808D1*
X-20192D2*
X-19648D1*
X-33850Y69368D2*
X-28808D1*
X-20192D2*
X-19648D1*
X-33850Y69122D2*
X-28808D1*
X-20192D2*
X-19648D1*
X-33850Y68875D2*
X-28808D1*
X-20192D2*
X-19648D1*
X-33850Y68628D2*
X-28808D1*
X-20192D2*
X-19648D1*
X-33850Y68382D2*
X-28808D1*
X-20192D2*
X-19648D1*
X-33850Y68135D2*
X-28808D1*
X-20192D2*
X-19648D1*
X-33850Y67888D2*
X-28808D1*
X-20192D2*
X-19648D1*
X-33850Y67642D2*
X-28808D1*
X-20192D2*
X-19648D1*
X-33850Y67395D2*
X-28808D1*
X-20192D2*
X-19648D1*
X-33850Y67148D2*
X-28808D1*
X-20192D2*
X-19648D1*
X-33850Y66902D2*
X-19648D1*
X-33850Y66655D2*
X-19648D1*
X-33850Y66408D2*
X-19648D1*
X-33850Y66162D2*
X-19648D1*
X-33850Y65915D2*
X-19648D1*
X-33850Y65668D2*
X-19648D1*
X-33850Y65422D2*
X-19648D1*
X-33850Y65175D2*
X-19648D1*
X-33850Y64928D2*
X-19648D1*
X-33850Y64682D2*
X-19648D1*
X-33850Y64435D2*
X-30781D1*
X-29219D2*
X-19648D1*
X-33850Y64188D2*
X-31441D1*
X-28559D2*
X-19648D1*
X-33850Y63942D2*
X-31847D1*
X-28153D2*
X-19648D1*
X-33850Y63695D2*
X-32152D1*
X-27848D2*
X-19648D1*
X-33850Y63448D2*
X-32390D1*
X-27610D2*
X-19648D1*
X-33850Y63202D2*
X-32582D1*
X-27418D2*
X-19648D1*
X-33850Y62955D2*
X-32738D1*
X-27262D2*
X-19648D1*
X-33850Y62708D2*
X-32867D1*
X-27133D2*
X-19648D1*
X-33850Y62462D2*
X-32968D1*
X-27032D2*
X-19648D1*
X-33850Y62215D2*
X-33047D1*
X-26954D2*
X-19648D1*
X-33850Y61968D2*
X-33101D1*
X-26899D2*
X-19648D1*
X-33850Y61722D2*
X-33136D1*
X-26864D2*
X-6523D1*
X-33850Y61475D2*
X-33152D1*
X-26848D2*
X-6277D1*
X-33850Y61228D2*
X-33148D1*
X-26852D2*
X-6031D1*
X-33850Y60982D2*
X-33125D1*
X-26875D2*
X-5785D1*
X-33850Y60735D2*
X-33082D1*
X-26918D2*
X-5539D1*
X-33850Y60488D2*
X-33019D1*
X-26981D2*
X-5289D1*
X-33850Y60242D2*
X-32929D1*
X-27071D2*
X-5043D1*
X-33850Y59995D2*
X-32820D1*
X-27180D2*
X-4796D1*
X-33850Y59748D2*
X-32683D1*
X-27317D2*
X-4550D1*
X-33850Y59502D2*
X-32511D1*
X-27489D2*
X-4304D1*
X-33850Y59255D2*
X-32300D1*
X-27700D2*
X-4058D1*
X-33850Y59008D2*
X-32043D1*
X-27957D2*
X-3808D1*
X-33850Y58762D2*
X-31707D1*
X-28293D2*
X-3562D1*
X-33850Y58515D2*
X-31234D1*
X-28766D2*
X-3316D1*
X-33850Y58268D2*
X-3070D1*
X-33850Y58022D2*
X-2824D1*
X-33850Y57775D2*
X-2578D1*
X-33850Y57528D2*
X-2332D1*
X-33850Y57282D2*
X-2082D1*
X-33850Y57035D2*
X-1836D1*
X-33850Y56788D2*
X-1589D1*
X-33850Y56542D2*
X-1343D1*
X-33850Y56295D2*
X-1097D1*
X-33850Y56048D2*
X-851D1*
X-33850Y55802D2*
X-605D1*
X-33850Y55555D2*
X-25570D1*
X-23430D2*
X-355D1*
X-33850Y55308D2*
X-26281D1*
X-22719D2*
X-109D1*
X-33850Y55062D2*
X-26750D1*
X-22250D2*
X23450D1*
X30550D2*
X33850D1*
X-33850Y54815D2*
X-27113D1*
X-21887D2*
X23450D1*
X30550D2*
X33850D1*
X-33850Y54568D2*
X-27410D1*
X-21590D2*
X23450D1*
X30550D2*
X33850D1*
X-33850Y54322D2*
X-27660D1*
X-21340D2*
X23450D1*
X30550D2*
X33850D1*
X-33850Y54075D2*
X-27871D1*
X-21129D2*
X23450D1*
X30550D2*
X33850D1*
X-33850Y53828D2*
X-28054D1*
X-20946D2*
X23450D1*
X30550D2*
X33850D1*
X-33850Y53582D2*
X-28214D1*
X-20786D2*
X23450D1*
X30550D2*
X33850D1*
X-33850Y53335D2*
X-28347D1*
X-20653D2*
X23450D1*
X30550D2*
X33850D1*
X-33850Y53088D2*
X-28464D1*
X-20536D2*
X23450D1*
X30550D2*
X33850D1*
X-33850Y52842D2*
X-28558D1*
X-20442D2*
X23450D1*
X30550D2*
X33850D1*
X-33850Y52595D2*
X-28640D1*
X-20360D2*
X23450D1*
X30550D2*
X33850D1*
X-33850Y52348D2*
X-28703D1*
X-20297D2*
X23450D1*
X30550D2*
X33850D1*
X-33850Y52102D2*
X-28754D1*
X-20247D2*
X23450D1*
X30550D2*
X33850D1*
X-33850Y51855D2*
X-28785D1*
X-20215D2*
X23450D1*
X30550D2*
X33850D1*
X-33850Y51608D2*
X-28804D1*
X-20196D2*
X23450D1*
X30550D2*
X33850D1*
X-33850Y51362D2*
X-28808D1*
X-20192D2*
X23450D1*
X30550D2*
X33850D1*
X-33850Y51115D2*
X-28800D1*
X-20200D2*
X23450D1*
X30550D2*
X33850D1*
X-33850Y50868D2*
X-28777D1*
X-20223D2*
X23450D1*
X30550D2*
X33850D1*
X-33850Y50622D2*
X-28738D1*
X-20262D2*
X23450D1*
X30550D2*
X33850D1*
X-33850Y50375D2*
X-28687D1*
X-20313D2*
X23450D1*
X30550D2*
X33850D1*
X-33850Y50128D2*
X-28617D1*
X-20383D2*
X23450D1*
X30550D2*
X33850D1*
X-33850Y49882D2*
X-28531D1*
X-20469D2*
X23450D1*
X30550D2*
X33850D1*
X-33850Y49635D2*
X-28429D1*
X-20571D2*
X23450D1*
X30550D2*
X33850D1*
X-33850Y49388D2*
X-28308D1*
X-20692D2*
X23450D1*
X30550D2*
X33850D1*
X-33850Y49142D2*
X-28168D1*
X-20832D2*
X23450D1*
X30550D2*
X33850D1*
X-33850Y48895D2*
X-28000D1*
X-21000D2*
X23450D1*
X30550D2*
X33850D1*
X-33850Y48648D2*
X-27808D1*
X-21192D2*
X23450D1*
X30550D2*
X33850D1*
X-33850Y48402D2*
X-27586D1*
X-21414D2*
X23450D1*
X30550D2*
X33850D1*
X-33850Y48155D2*
X-27324D1*
X-21676D2*
X23450D1*
X30550D2*
X33850D1*
X-33850Y47908D2*
X-27007D1*
X-21993D2*
X23450D1*
X30550D2*
X33850D1*
X-33850Y47662D2*
X-26617D1*
X-22383D2*
X23450D1*
X30550D2*
X33850D1*
X-33850Y47415D2*
X-26097D1*
X-22903D2*
X23450D1*
X30550D2*
X33850D1*
X-33850Y47168D2*
X-25195D1*
X-23805D2*
X23450D1*
X30550D2*
X33850D1*
X-33850Y46922D2*
X23450D1*
X30550D2*
X33850D1*
X-33850Y46675D2*
X23450D1*
X30550D2*
X33850D1*
X-33850Y46428D2*
X23450D1*
X30550D2*
X33850D1*
X-33850Y46182D2*
X23450D1*
X30550D2*
X33850D1*
X-33850Y45935D2*
X33850D1*
X-33850Y45688D2*
X33850D1*
X-33850Y45442D2*
X33850D1*
X-33850Y45195D2*
X33850D1*
X-33850Y44948D2*
X26102D1*
X27898D2*
X33850D1*
X-33850Y44702D2*
X25219D1*
X28781D2*
X33850D1*
X-33850Y44455D2*
X24692D1*
X29308D2*
X33850D1*
X-33850Y44208D2*
X24293D1*
X29707D2*
X33850D1*
X-33850Y43962D2*
X23969D1*
X30031D2*
X33850D1*
X-33850Y43715D2*
X23696D1*
X30304D2*
X33850D1*
X-33850Y43468D2*
X23465D1*
X30535D2*
X33850D1*
X-33850Y43222D2*
X23262D1*
X30738D2*
X33850D1*
X-33850Y42975D2*
X23090D1*
X30910D2*
X33850D1*
X-33850Y42728D2*
X22938D1*
X31062D2*
X33850D1*
X-33850Y42482D2*
X22805D1*
X31195D2*
X33850D1*
X-33850Y42235D2*
X22692D1*
X31308D2*
X33850D1*
X-33850Y41988D2*
X-28765D1*
X-27434D2*
X22598D1*
X31402D2*
X33850D1*
X-33850Y41742D2*
X-29711D1*
X-26489D2*
X22520D1*
X31480D2*
X33850D1*
X-33850Y41495D2*
X-30246D1*
X-25954D2*
X22454D1*
X31546D2*
X33850D1*
X-33850Y41248D2*
X-30648D1*
X-25555D2*
X22407D1*
X31593D2*
X33850D1*
X-33850Y41002D2*
X-30968D1*
X-25231D2*
X22371D1*
X31629D2*
X33850D1*
X-33850Y40755D2*
X-31242D1*
X-24957D2*
X22348D1*
X31652D2*
X33850D1*
X-33850Y40508D2*
X-31472D1*
X-24727D2*
X22340D1*
X31660D2*
X33850D1*
X-33850Y40262D2*
X-31671D1*
X-24528D2*
X22344D1*
X31656D2*
X33850D1*
X-33850Y40015D2*
X-31843D1*
X-24356D2*
X22364D1*
X31636D2*
X33850D1*
X-33850Y39768D2*
X-31992D1*
X-24207D2*
X-12902D1*
X-12098D2*
X22340D1*
X31660D2*
X33850D1*
X-33850Y39522D2*
X-32121D1*
X-24079D2*
X-14019D1*
X-10981D2*
X22340D1*
X31660D2*
X33850D1*
X-33850Y39275D2*
X-32230D1*
X-23969D2*
X-14578D1*
X-10422D2*
X22340D1*
X31660D2*
X33850D1*
X-33850Y39028D2*
X-32324D1*
X-23875D2*
X-14988D1*
X-10012D2*
X22340D1*
X31660D2*
X33850D1*
X-33850Y38782D2*
X-32398D1*
X-23801D2*
X-15316D1*
X-9684D2*
X22340D1*
X31660D2*
X33850D1*
X-33850Y38535D2*
X-32461D1*
X-23739D2*
X-15589D1*
X-9411D2*
X22340D1*
X31660D2*
X33850D1*
X-33850Y38288D2*
X-32507D1*
X-23696D2*
X-15824D1*
X-9176D2*
X22340D1*
X31660D2*
X33850D1*
X-33850Y38042D2*
X-32539D1*
X-23661D2*
X-16023D1*
X-8977D2*
X-4410D1*
X4410D2*
X21364D1*
X31660D2*
X33850D1*
X-33850Y37795D2*
X-32554D1*
X-23645D2*
X-16199D1*
X-8801D2*
X-4410D1*
X4410D2*
X20668D1*
X31660D2*
X33850D1*
X-33850Y37548D2*
X-32558D1*
X-23641D2*
X-16347D1*
X-8653D2*
X-4410D1*
X4410D2*
X20200D1*
X31660D2*
X33850D1*
X-33850Y37302D2*
X-32550D1*
X-23649D2*
X-16476D1*
X-8524D2*
X-4410D1*
X4410D2*
X19836D1*
X31660D2*
X33850D1*
X-33850Y37055D2*
X-32527D1*
X-23672D2*
X-16586D1*
X-8414D2*
X-4410D1*
X4410D2*
X19536D1*
X31660D2*
X33850D1*
X-33850Y36808D2*
X-32488D1*
X-23711D2*
X-16675D1*
X-8325D2*
X-4410D1*
X4410D2*
X19286D1*
X31660D2*
X33850D1*
X-33850Y36562D2*
X-32437D1*
X-23762D2*
X-16753D1*
X-8246D2*
X-4410D1*
X4410D2*
X19071D1*
X31660D2*
X33850D1*
X-33850Y36315D2*
X-32371D1*
X-23832D2*
X-16812D1*
X-8188D2*
X-4410D1*
X4410D2*
X18883D1*
X31660D2*
X33850D1*
X-33850Y36068D2*
X-32289D1*
X-23914D2*
X-16859D1*
X-8141D2*
X-4410D1*
X4410D2*
X18723D1*
X31660D2*
X33850D1*
X-33850Y35822D2*
X-32187D1*
X-24012D2*
X-16890D1*
X-8110D2*
X-4410D1*
X4410D2*
X18582D1*
X31660D2*
X33850D1*
X-33850Y35575D2*
X-32070D1*
X-24129D2*
X-16906D1*
X-8094D2*
X-4410D1*
X4410D2*
X18465D1*
X31660D2*
X33850D1*
X-33850Y35328D2*
X-31933D1*
X-24266D2*
X-16910D1*
X-8090D2*
X-4410D1*
X4410D2*
X18364D1*
X31660D2*
X33850D1*
X-33850Y35082D2*
X-31777D1*
X-24426D2*
X-16898D1*
X-8102D2*
X-4410D1*
X4410D2*
X18282D1*
X31660D2*
X33850D1*
X-33850Y34835D2*
X-31593D1*
X-24610D2*
X-16875D1*
X-8125D2*
X-4410D1*
X4410D2*
X18215D1*
X31660D2*
X33850D1*
X-33850Y34588D2*
X-31379D1*
X-24821D2*
X-16836D1*
X-8164D2*
X-4410D1*
X4410D2*
X18161D1*
X31660D2*
X33850D1*
X-33850Y34342D2*
X-31132D1*
X-25067D2*
X-16781D1*
X-8219D2*
X-4410D1*
X4410D2*
X18125D1*
X31660D2*
X33850D1*
X-33850Y34095D2*
X-30843D1*
X-25360D2*
X-20414D1*
X-17586D2*
X-16711D1*
X-8289D2*
X-4410D1*
X4410D2*
X18102D1*
X31660D2*
X33850D1*
X-33850Y33848D2*
X-30488D1*
X-25711D2*
X-20972D1*
X-17028D2*
X-16625D1*
X-8375D2*
X-4410D1*
X4410D2*
X18090D1*
X31660D2*
X33850D1*
X-33850Y33602D2*
X-30043D1*
X-26157D2*
X-21375D1*
X-16625D2*
X-16523D1*
X-8477D2*
X-4410D1*
X4410D2*
X18094D1*
X31660D2*
X33850D1*
X-33850Y33355D2*
X-29410D1*
X-26793D2*
X-21699D1*
X-8598D2*
X-4410D1*
X4410D2*
X18114D1*
X31660D2*
X33850D1*
X-33850Y33108D2*
X-21964D1*
X-8739D2*
X-4410D1*
X4410D2*
X18145D1*
X31660D2*
X33850D1*
X-33850Y32862D2*
X-22187D1*
X-8899D2*
X-4410D1*
X4410D2*
X18192D1*
X31660D2*
X33850D1*
X-33850Y32615D2*
X-22382D1*
X-9090D2*
X-4410D1*
X4410D2*
X18254D1*
X31660D2*
X33850D1*
X-33850Y32368D2*
X-22546D1*
X-9309D2*
X-4410D1*
X4410D2*
X18332D1*
X31660D2*
X33850D1*
X-33850Y32122D2*
X-22687D1*
X-9563D2*
X-4410D1*
X4410D2*
X18426D1*
X31660D2*
X33850D1*
X-33850Y31875D2*
X-22804D1*
X-9868D2*
X-4410D1*
X4410D2*
X18536D1*
X31660D2*
X33850D1*
X-33850Y31628D2*
X-22906D1*
X-15094D2*
X-14761D1*
X-10239D2*
X-4410D1*
X4410D2*
X18664D1*
X31660D2*
X33850D1*
X-33850Y31382D2*
X-22988D1*
X-15012D2*
X-14281D1*
X-10719D2*
X-4410D1*
X4410D2*
X18817D1*
X31660D2*
X33850D1*
X-33850Y31135D2*
X-23054D1*
X-14946D2*
X-13543D1*
X-11457D2*
X-4410D1*
X4410D2*
X18993D1*
X31660D2*
X33850D1*
X-33850Y30888D2*
X-23101D1*
X-14899D2*
X-4410D1*
X4410D2*
X19196D1*
X31660D2*
X33850D1*
X-33850Y30642D2*
X-23136D1*
X-14864D2*
X-4410D1*
X4410D2*
X19434D1*
X29820D2*
X33850D1*
X-33850Y30395D2*
X-23156D1*
X-14844D2*
X-4410D1*
X4410D2*
X19711D1*
X29914D2*
X33850D1*
X-33850Y30148D2*
X-23160D1*
X-14840D2*
X-4410D1*
X4410D2*
X20047D1*
X29988D2*
X33850D1*
X-33850Y29902D2*
X-23148D1*
X-14852D2*
X-4410D1*
X4410D2*
X20469D1*
X30050D2*
X33850D1*
X-33850Y29655D2*
X-23125D1*
X-14875D2*
X-13058D1*
X-11942D2*
X-4410D1*
X4410D2*
X20903D1*
X30097D2*
X33850D1*
X-33850Y29408D2*
X-23082D1*
X-14918D2*
X-13570D1*
X-11430D2*
X20868D1*
X30132D2*
X33850D1*
X-33850Y29162D2*
X-23027D1*
X-14973D2*
X-13855D1*
X-11145D2*
X20848D1*
X30152D2*
X33850D1*
X-33850Y28915D2*
X-23339D1*
X-15043D2*
X-14054D1*
X-10946D2*
X20840D1*
X30160D2*
X33850D1*
X-33850Y28668D2*
X-23777D1*
X-15133D2*
X-14191D1*
X-10809D2*
X20848D1*
X30152D2*
X33850D1*
X-33850Y28422D2*
X-24117D1*
X-15243D2*
X-14285D1*
X-10715D2*
X20864D1*
X30136D2*
X33850D1*
X-33850Y28175D2*
X-24398D1*
X-15371D2*
X-14339D1*
X-10661D2*
X20899D1*
X30101D2*
X33850D1*
X-33850Y27928D2*
X-24632D1*
X-15520D2*
X-14359D1*
X-10641D2*
X20942D1*
X30058D2*
X33850D1*
X-33850Y27682D2*
X-24832D1*
X-15696D2*
X-14347D1*
X-10653D2*
X-2679D1*
X-321D2*
X19821D1*
X29996D2*
X33850D1*
X-33850Y27435D2*
X-25004D1*
X-15903D2*
X-14300D1*
X-10700D2*
X-3367D1*
X367D2*
X19133D1*
X29921D2*
X33850D1*
X-33850Y27188D2*
X-25152D1*
X-16141D2*
X-14214D1*
X-10786D2*
X-3832D1*
X832D2*
X18668D1*
X29832D2*
X33850D1*
X-33850Y26942D2*
X-25273D1*
X-16430D2*
X-14089D1*
X-10911D2*
X-4195D1*
X1195D2*
X18305D1*
X29726D2*
X33850D1*
X-33850Y26695D2*
X-25379D1*
X-16782D2*
X-13910D1*
X-11090D2*
X-4492D1*
X1492D2*
X18008D1*
X29601D2*
X33850D1*
X-33850Y26448D2*
X-25468D1*
X-17239D2*
X-13648D1*
X-11352D2*
X-4746D1*
X1746D2*
X17754D1*
X29457D2*
X33850D1*
X-33850Y26202D2*
X-25535D1*
X-17465D2*
X-13218D1*
X-11782D2*
X-4964D1*
X1964D2*
X17536D1*
X29293D2*
X33850D1*
X-33850Y25955D2*
X-25589D1*
X-17411D2*
X-5148D1*
X2148D2*
X17352D1*
X29382D2*
X33850D1*
X-33850Y25708D2*
X-25629D1*
X-17372D2*
X-5312D1*
X2312D2*
X17188D1*
X30234D2*
X33850D1*
X-33850Y25462D2*
X-25652D1*
X-17348D2*
X-5453D1*
X2453D2*
X17047D1*
X30757D2*
X33850D1*
X-33850Y25215D2*
X-25660D1*
X-17340D2*
X-5570D1*
X2570D2*
X16930D1*
X31156D2*
X33850D1*
X-33850Y24968D2*
X-25652D1*
X-17348D2*
X-5671D1*
X2671D2*
X16829D1*
X31484D2*
X33850D1*
X-33850Y24722D2*
X-25632D1*
X-17368D2*
X-13265D1*
X-11735D2*
X-5757D1*
X2757D2*
X16743D1*
X31757D2*
X33850D1*
X-33850Y24475D2*
X-25597D1*
X-17403D2*
X-14144D1*
X-10856D2*
X-5828D1*
X2828D2*
X16672D1*
X31992D2*
X33850D1*
X-33850Y24228D2*
X-25543D1*
X-17457D2*
X-14664D1*
X-10336D2*
X-5882D1*
X2882D2*
X16618D1*
X32195D2*
X33850D1*
X-33850Y23982D2*
X-25476D1*
X-17524D2*
X-15054D1*
X-9946D2*
X-5921D1*
X2921D2*
X16579D1*
X32375D2*
X33850D1*
X-33850Y23735D2*
X-25390D1*
X-17610D2*
X-15371D1*
X-9629D2*
X-5949D1*
X2949D2*
X16551D1*
X32527D2*
X33850D1*
X-33850Y23488D2*
X-25289D1*
X-17711D2*
X-15636D1*
X-9364D2*
X-5961D1*
X2961D2*
X16539D1*
X32664D2*
X33850D1*
X-33850Y23242D2*
X-25168D1*
X-17832D2*
X-15863D1*
X-9137D2*
X-5957D1*
X2957D2*
X16543D1*
X32777D2*
X33850D1*
X-33850Y22995D2*
X-25023D1*
X-17977D2*
X-16058D1*
X-8942D2*
X-5941D1*
X2941D2*
X16559D1*
X32879D2*
X33850D1*
X-33850Y22748D2*
X-24855D1*
X-18145D2*
X-16226D1*
X-8774D2*
X-5910D1*
X2910D2*
X16590D1*
X32961D2*
X33850D1*
X-33850Y22502D2*
X-24656D1*
X-18344D2*
X-16375D1*
X-8625D2*
X-5867D1*
X2867D2*
X16633D1*
X33027D2*
X33850D1*
X-33850Y22255D2*
X-24425D1*
X-18575D2*
X-16500D1*
X-8500D2*
X-5808D1*
X2808D2*
X16692D1*
X33082D2*
X33850D1*
X-33850Y22008D2*
X-24152D1*
X-18848D2*
X-16605D1*
X-8395D2*
X-5734D1*
X2734D2*
X16766D1*
X33121D2*
X33850D1*
X-33850Y21762D2*
X-23820D1*
X-19180D2*
X-16691D1*
X-8309D2*
X-5644D1*
X2644D2*
X16856D1*
X33144D2*
X33850D1*
X-33850Y21515D2*
X-23402D1*
X-19598D2*
X-16765D1*
X-8235D2*
X-5539D1*
X2539D2*
X16961D1*
X33160D2*
X33850D1*
X-33850Y21268D2*
X-22804D1*
X-20196D2*
X-16824D1*
X-8176D2*
X-5414D1*
X2414D2*
X17086D1*
X33156D2*
X33850D1*
X-33850Y21022D2*
X-16867D1*
X-8133D2*
X-5269D1*
X2269D2*
X17231D1*
X33144D2*
X33850D1*
X-33850Y20775D2*
X-16894D1*
X-8106D2*
X-5101D1*
X2101D2*
X17399D1*
X33117D2*
X33850D1*
X-33850Y20528D2*
X-16906D1*
X-8094D2*
X-4906D1*
X1906D2*
X17594D1*
X33078D2*
X33850D1*
X-33850Y20282D2*
X-16910D1*
X-8090D2*
X-4679D1*
X1679D2*
X17821D1*
X33023D2*
X33850D1*
X-33850Y20035D2*
X-16894D1*
X-8106D2*
X-4414D1*
X1414D2*
X18086D1*
X23914D2*
X24045D1*
X32953D2*
X33850D1*
X-33850Y19788D2*
X-16867D1*
X-8133D2*
X-4097D1*
X1097D2*
X18403D1*
X23597D2*
X24129D1*
X32871D2*
X33850D1*
X-33850Y19542D2*
X-16824D1*
X-8176D2*
X-3711D1*
X711D2*
X18789D1*
X23211D2*
X24231D1*
X32769D2*
X33850D1*
X-33850Y19295D2*
X-29562D1*
X-26637D2*
X-16769D1*
X-8231D2*
X-3203D1*
X203D2*
X19297D1*
X22703D2*
X24344D1*
X32656D2*
X33850D1*
X-33850Y19048D2*
X-30144D1*
X-26055D2*
X-16695D1*
X-8305D2*
X-2379D1*
X-621D2*
X20122D1*
X21879D2*
X24481D1*
X32519D2*
X33850D1*
X-33850Y18802D2*
X-30566D1*
X-25633D2*
X-16609D1*
X-8391D2*
X24637D1*
X32363D2*
X33850D1*
X-33850Y18555D2*
X-30906D1*
X-25293D2*
X-16503D1*
X-8496D2*
X24817D1*
X32183D2*
X33850D1*
X-33850Y18308D2*
X-31187D1*
X-25012D2*
X-16378D1*
X-8621D2*
X25024D1*
X31976D2*
X33850D1*
X-33850Y18062D2*
X-31425D1*
X-24774D2*
X-16234D1*
X-8766D2*
X25258D1*
X31742D2*
X33850D1*
X-33850Y17815D2*
X-31632D1*
X-24567D2*
X-16066D1*
X-8934D2*
X25539D1*
X31461D2*
X33850D1*
X-33850Y17568D2*
X-31808D1*
X-24391D2*
X-15875D1*
X-9125D2*
X25868D1*
X31132D2*
X33850D1*
X-33850Y17322D2*
X-31964D1*
X-24239D2*
X-15648D1*
X-9352D2*
X26274D1*
X30726D2*
X33850D1*
X-33850Y17075D2*
X-32097D1*
X-24106D2*
X-15382D1*
X-9618D2*
X26809D1*
X30191D2*
X33850D1*
X-33850Y16828D2*
X-32211D1*
X-23993D2*
X-15070D1*
X-9930D2*
X27715D1*
X29285D2*
X33850D1*
X-33850Y16582D2*
X-32304D1*
X-23895D2*
X-14679D1*
X-10321D2*
X33850D1*
X-33850Y16335D2*
X-32382D1*
X-23817D2*
X-14168D1*
X-10832D2*
X33850D1*
X-33850Y16088D2*
X-32449D1*
X-23750D2*
X-13320D1*
X-11680D2*
X33850D1*
X-33850Y15842D2*
X-32496D1*
X-23704D2*
X-17050D1*
X-14352D2*
X-4488D1*
X-1793D2*
X1793D1*
X4488D2*
X14352D1*
X17050D2*
X33850D1*
X-33850Y15595D2*
X-32531D1*
X-23668D2*
X-17695D1*
X-13704D2*
X-5136D1*
X-1145D2*
X1145D1*
X5136D2*
X13704D1*
X17695D2*
X33850D1*
X-33850Y15348D2*
X-32554D1*
X-23649D2*
X-18152D1*
X-13246D2*
X-5593D1*
X-688D2*
X688D1*
X5593D2*
X13246D1*
X18152D2*
X33850D1*
X-33850Y15102D2*
X-32558D1*
X-23641D2*
X-18515D1*
X-12887D2*
X-5953D1*
X-325D2*
X325D1*
X5953D2*
X12887D1*
X18515D2*
X33850D1*
X-33850Y14855D2*
X-32554D1*
X-23649D2*
X-18816D1*
X-12586D2*
X-6253D1*
X6253D2*
X12586D1*
X18816D2*
X33850D1*
X-33850Y14608D2*
X-32531D1*
X-23668D2*
X-19070D1*
X-12329D2*
X-6511D1*
X6511D2*
X12329D1*
X19070D2*
X33850D1*
X-33850Y14362D2*
X-32500D1*
X-23704D2*
X-19289D1*
X-12110D2*
X-6730D1*
X6730D2*
X12110D1*
X19289D2*
X33850D1*
X-33850Y14115D2*
X-32449D1*
X-23750D2*
X-19480D1*
X-11918D2*
X-6921D1*
X6921D2*
X11918D1*
X19480D2*
X33850D1*
X-33850Y13868D2*
X-32386D1*
X-23813D2*
X-19648D1*
X-11750D2*
X-7089D1*
X7089D2*
X11750D1*
X19648D2*
X33850D1*
X-33850Y13622D2*
X-32304D1*
X-23895D2*
X-19793D1*
X-11606D2*
X-7234D1*
X7234D2*
X11606D1*
X19793D2*
X33850D1*
X-33850Y13375D2*
X-32211D1*
X-23989D2*
X-19918D1*
X-11481D2*
X-7359D1*
X7359D2*
X11481D1*
X19918D2*
X33850D1*
X-33850Y13128D2*
X-32097D1*
X-24102D2*
X-20027D1*
X-11375D2*
X-7464D1*
X7464D2*
X11375D1*
X20027D2*
X33850D1*
X-33850Y12882D2*
X-31964D1*
X-24235D2*
X-20117D1*
X-11282D2*
X-7558D1*
X7558D2*
X11282D1*
X20117D2*
X33850D1*
X-33850Y12635D2*
X-31812D1*
X-24387D2*
X-20191D1*
X-11207D2*
X-7632D1*
X7632D2*
X11207D1*
X20191D2*
X33850D1*
X-33850Y12388D2*
X-31632D1*
X-24567D2*
X-20253D1*
X-11149D2*
X-7695D1*
X7695D2*
X11149D1*
X20253D2*
X33850D1*
X-33850Y12142D2*
X-31429D1*
X-24770D2*
X-20300D1*
X-11102D2*
X-7742D1*
X7742D2*
X11102D1*
X20300D2*
X33850D1*
X-33850Y11895D2*
X-31191D1*
X-25008D2*
X-20332D1*
X-11067D2*
X-7773D1*
X7773D2*
X11067D1*
X20332D2*
X33850D1*
X-33850Y11648D2*
X-30910D1*
X-25289D2*
X-20351D1*
X-11047D2*
X-7793D1*
X7793D2*
X11047D1*
X20351D2*
X33850D1*
X-33850Y11402D2*
X-30574D1*
X-25629D2*
X-20359D1*
X-11039D2*
X-7800D1*
X7800D2*
X11039D1*
X20359D2*
X33850D1*
X-33850Y11155D2*
X-30152D1*
X-26051D2*
X-20355D1*
X-11047D2*
X-7793D1*
X7793D2*
X11047D1*
X20355D2*
X33850D1*
X-33850Y10908D2*
X-29574D1*
X-26625D2*
X-20332D1*
X-11067D2*
X-7773D1*
X7773D2*
X11067D1*
X20332D2*
X33850D1*
X-33850Y10662D2*
X-20300D1*
X-11098D2*
X-7742D1*
X7742D2*
X11098D1*
X20300D2*
X33850D1*
X-33850Y10415D2*
X-20253D1*
X-11145D2*
X-7695D1*
X7695D2*
X11145D1*
X20253D2*
X33850D1*
X-33850Y10168D2*
X-20195D1*
X-11207D2*
X-7632D1*
X7632D2*
X11207D1*
X20195D2*
X33850D1*
X-33850Y9922D2*
X-20117D1*
X-11282D2*
X-7558D1*
X7558D2*
X11282D1*
X20117D2*
X33850D1*
X-33850Y9675D2*
X-20027D1*
X-11371D2*
X-7468D1*
X7468D2*
X11371D1*
X20027D2*
X33850D1*
X-33850Y9428D2*
X-19918D1*
X-11481D2*
X-7359D1*
X7359D2*
X11481D1*
X19918D2*
X33850D1*
X-33850Y9182D2*
X-19793D1*
X-11606D2*
X-7234D1*
X7234D2*
X11606D1*
X19793D2*
X33850D1*
X-33850Y8935D2*
X-19648D1*
X-11750D2*
X-7089D1*
X7089D2*
X11750D1*
X19648D2*
X33850D1*
X-33850Y8688D2*
X-19484D1*
X-11918D2*
X-6925D1*
X6925D2*
X11918D1*
X19484D2*
X33850D1*
X-33850Y8442D2*
X-19293D1*
X-12106D2*
X-6734D1*
X6734D2*
X12106D1*
X19293D2*
X33850D1*
X-33850Y8195D2*
X-19074D1*
X-12329D2*
X-6511D1*
X6511D2*
X12329D1*
X19074D2*
X33850D1*
X-33850Y7948D2*
X-31781D1*
X-30219D2*
X-18816D1*
X-12582D2*
X-6257D1*
X6257D2*
X12582D1*
X18816D2*
X30219D1*
X31781D2*
X33850D1*
X-33850Y7702D2*
X-32527D1*
X-29473D2*
X-18519D1*
X-12883D2*
X-5957D1*
X-321D2*
X321D1*
X5957D2*
X12883D1*
X18519D2*
X29473D1*
X32527D2*
X33850D1*
X-33850Y7455D2*
X-32980D1*
X-29020D2*
X-18156D1*
X-13243D2*
X-5597D1*
X-684D2*
X684D1*
X5597D2*
X13243D1*
X18156D2*
X29020D1*
X32980D2*
X33850D1*
X-33850Y7208D2*
X-33324D1*
X-28676D2*
X-17703D1*
X-13696D2*
X-5144D1*
X-1137D2*
X1137D1*
X5144D2*
X13696D1*
X17703D2*
X28676D1*
X33324D2*
X33850D1*
X-33850Y6962D2*
X-33593D1*
X-28407D2*
X-17058D1*
X-14340D2*
X-4500D1*
X-1782D2*
X1782D1*
X4500D2*
X14340D1*
X17058D2*
X28407D1*
X33593D2*
X33850D1*
X-28180Y6715D2*
X28180D1*
X-27993Y6468D2*
X27993D1*
X-27836Y6222D2*
X27836D1*
X-27707Y5975D2*
X27707D1*
X-27598Y5728D2*
X27598D1*
X-27512Y5482D2*
X27512D1*
X-27446Y5235D2*
X27446D1*
X-27395Y4988D2*
X27395D1*
X-27364Y4742D2*
X27364D1*
X-27348Y4495D2*
X27348D1*
X-27352Y4248D2*
X27352D1*
X-27368Y4002D2*
X27368D1*
X-27407Y3755D2*
X27407D1*
X-27457Y3508D2*
X27457D1*
X-27532Y3262D2*
X27532D1*
X-27621Y3015D2*
X27621D1*
X-27735Y2768D2*
X27735D1*
X-27871Y2522D2*
X27871D1*
X-28036Y2275D2*
X28036D1*
X-28231Y2028D2*
X28231D1*
X-28465Y1782D2*
X28465D1*
X-28750Y1535D2*
X28750D1*
X24031Y20163D2*
X23750Y19921D1*
X23447Y19701D1*
X23125Y19507D1*
X22789Y19342D1*
X22440Y19205D1*
X22081Y19099D1*
X21713Y19023D1*
X21341Y18978D1*
X20966Y18965D1*
X20592Y18984D1*
X20221Y19034D1*
X19855Y19115D1*
X19497Y19228D1*
X19150Y19369D1*
X18816Y19540D1*
X18498Y19738D1*
X18198Y19963D1*
X17917Y20212D1*
X17659Y20483D1*
X17425Y20776D1*
X17216Y21087D1*
X17034Y21415D1*
X16881Y21757D1*
X16756Y22111D1*
X16663Y22474D1*
X16600Y22844D1*
X16569Y23217D1*
Y23592D1*
X16601Y23966D1*
X16665Y24335D1*
X16759Y24698D1*
X16884Y25051D1*
X17038Y25393D1*
X17220Y25720D1*
X17430Y26031D1*
X17665Y26323D1*
X17924Y26595D1*
X18205Y26843D1*
X18505Y27067D1*
X18824Y27264D1*
X19158Y27434D1*
X19505Y27576D1*
X19863Y27687D1*
X20229Y27768D1*
X20601Y27817D1*
X20987Y27835D1*
X20916Y28216D1*
X20875Y28589D1*
X20865Y28964D1*
X20886Y29338D1*
X20936Y29706D1*
X20693Y29804D1*
X20359Y29973D1*
X20040Y30170D1*
X19739Y30394D1*
X19458Y30642D1*
X19199Y30913D1*
X18965Y31206D1*
X18756Y31517D1*
X18575Y31845D1*
X18422Y32188D1*
X18299Y32542D1*
X18207Y32905D1*
X18146Y33275D1*
X18118Y33649D1*
X18121Y34024D1*
X18156Y34397D1*
X18223Y34766D1*
X18321Y35128D1*
X18450Y35480D1*
X18608Y35820D1*
X18795Y36145D1*
X19009Y36453D1*
X19248Y36741D1*
X19511Y37008D1*
X19796Y37252D1*
X20101Y37470D1*
X20423Y37662D1*
X20760Y37825D1*
X21111Y37959D1*
X21471Y38063D1*
X21839Y38135D1*
X22211Y38175D1*
X22364Y38183D1*
X22365Y39935D1*
X22400D1*
X22372Y40233D1*
X22367Y40608D1*
X22393Y40982D1*
X22450Y41352D1*
X22537Y41717D1*
X22654Y42073D1*
X22800Y42418D1*
X22974Y42750D1*
X23175Y43067D1*
X23402Y43366D1*
X23652Y43645D1*
X23924Y43902D1*
X24217Y44136D1*
X24528Y44345D1*
X24856Y44528D1*
X25197Y44683D1*
X25550Y44809D1*
X25912Y44906D1*
X26281Y44973D1*
X26654Y45008D1*
X27025Y45015D1*
X27100Y45011D1*
X27229Y45013D1*
X27603Y44987D1*
X27974Y44930D1*
X28338Y44843D1*
X28695Y44725D1*
X29040Y44579D1*
X29372Y44405D1*
X29688Y44204D1*
X29987Y43977D1*
X30266Y43727D1*
X30523Y43455D1*
X30757Y43162D1*
X30966Y42850D1*
X31149Y42523D1*
X31304Y42182D1*
X31430Y41829D1*
X31526Y41466D1*
X31593Y41097D1*
X31628Y40724D1*
X31633Y40355D1*
X31607Y39981D1*
X31602Y39938D1*
X31635Y39935D1*
Y30865D1*
X29694D1*
X29762Y30722D1*
X29895Y30372D1*
X30000Y30012D1*
X30075Y29644D1*
X30120Y29272D1*
X30135Y28900D1*
X30120Y28525D1*
X30074Y28153D1*
X29999Y27786D1*
X29894Y27426D1*
X29761Y27076D1*
X29600Y26737D1*
X29411Y26413D1*
X29198Y26105D1*
X29108Y25991D1*
X29279Y25969D1*
X29646Y25891D1*
X30005Y25784D1*
X30355Y25648D1*
X30692Y25484D1*
X31015Y25293D1*
X31321Y25078D1*
X31609Y24837D1*
X31877Y24575D1*
X32122Y24292D1*
X32344Y23989D1*
X32541Y23670D1*
X32711Y23336D1*
X32854Y22990D1*
X32968Y22633D1*
X33053Y22267D1*
X33108Y21897D1*
X33133Y21523D1*
X33128Y21150D1*
X33093Y20777D1*
X33028Y20408D1*
X32933Y20045D1*
X32809Y19691D1*
X32656Y19349D1*
X32477Y19019D1*
X32272Y18706D1*
X32041Y18410D1*
X31788Y18133D1*
X31514Y17878D1*
X31219Y17646D1*
X30907Y17439D1*
X30579Y17257D1*
X30237Y17103D1*
X29884Y16976D1*
X29522Y16879D1*
X29153Y16811D1*
X28780Y16774D1*
X28406Y16766D1*
X28031Y16789D1*
X27660Y16842D1*
X27295Y16924D1*
X26937Y17037D1*
X26589Y17177D1*
X26254Y17345D1*
X25934Y17540D1*
X25630Y17760D1*
X25346Y18004D1*
X25082Y18270D1*
X24840Y18556D1*
X24622Y18862D1*
X24429Y19183D1*
X24264Y19520D1*
X24125Y19868D1*
X24034Y20163D1*
X2933Y23275D2*
X2907Y22901D1*
X2849Y22531D1*
X2760Y22166D1*
X2641Y21811D1*
X2492Y21467D1*
X2314Y21137D1*
X2109Y20823D1*
X1879Y20527D1*
X1624Y20252D1*
X1347Y20000D1*
X1050Y19771D1*
X734Y19569D1*
X403Y19394D1*
X58Y19248D1*
X-299Y19131D1*
X-664Y19045D1*
X-1034Y18990D1*
X-1409Y18966D1*
X-1783Y18974D1*
X-2156Y19014D1*
X-2524Y19085D1*
X-2885Y19187D1*
X-3236Y19319D1*
X-3574Y19480D1*
X-3898Y19669D1*
X-4204Y19885D1*
X-4492Y20126D1*
X-4757Y20390D1*
X-5000Y20676D1*
X-5218Y20982D1*
X-5409Y21304D1*
X-5572Y21642D1*
X-5706Y21992D1*
X-5809Y22352D1*
X-5883Y22720D1*
X-5924Y23092D1*
X-5934Y23467D1*
X-5913Y23841D1*
X-5860Y24212D1*
X-5776Y24578D1*
X-5661Y24935D1*
X-5517Y25281D1*
X-5343Y25613D1*
X-5143Y25930D1*
X-4916Y26228D1*
X-4665Y26507D1*
X-4391Y26763D1*
X-4097Y26995D1*
X-3784Y27202D1*
X-3455Y27381D1*
X-3112Y27532D1*
X-2757Y27653D1*
X-2393Y27744D1*
X-2023Y27804D1*
X-1649Y27832D1*
X-1275Y27829D1*
X-901Y27794D1*
X-532Y27728D1*
X-170Y27631D1*
X182Y27504D1*
X523Y27347D1*
X849Y27162D1*
X1158Y26950D1*
X1449Y26713D1*
X1718Y26452D1*
X1964Y26169D1*
X2186Y25867D1*
X2381Y25547D1*
X2548Y25211D1*
X2687Y24863D1*
X2795Y24504D1*
X2873Y24137D1*
X2920Y23766D1*
X2935Y23400D1*
X2933Y23275D1*
X-23667Y37475D2*
X-23693Y37101D1*
X-23751Y36731D1*
X-23840Y36367D1*
X-23959Y36011D1*
X-24108Y35667D1*
X-24286Y35337D1*
X-24491Y35023D1*
X-24721Y34727D1*
X-24976Y34452D1*
X-25253Y34200D1*
X-25550Y33971D1*
X-25866Y33769D1*
X-26197Y33594D1*
X-26542Y33447D1*
X-26899Y33331D1*
X-27264Y33245D1*
X-27634Y33190D1*
X-28009Y33166D1*
X-28383Y33174D1*
X-28756Y33214D1*
X-29124Y33285D1*
X-29485Y33387D1*
X-29836Y33519D1*
X-30174Y33680D1*
X-30498Y33869D1*
X-30804Y34085D1*
X-31092Y34326D1*
X-31357Y34590D1*
X-31600Y34876D1*
X-31818Y35182D1*
X-32009Y35504D1*
X-32172Y35842D1*
X-32306Y36192D1*
X-32409Y36552D1*
X-32483Y36920D1*
X-32524Y37292D1*
X-32535Y37667D1*
X-32513Y38041D1*
X-32460Y38412D1*
X-32376Y38778D1*
X-32261Y39135D1*
X-32117Y39481D1*
X-31943Y39813D1*
X-31743Y40130D1*
X-31516Y40428D1*
X-31265Y40707D1*
X-30991Y40963D1*
X-30697Y41195D1*
X-30384Y41402D1*
X-30055Y41581D1*
X-29712Y41732D1*
X-29357Y41853D1*
X-28993Y41944D1*
X-28623Y42004D1*
X-28249Y42032D1*
X-27875Y42029D1*
X-27501Y41994D1*
X-27132Y41928D1*
X-26770Y41831D1*
X-26418Y41704D1*
X-26077Y41547D1*
X-25751Y41362D1*
X-25442Y41150D1*
X-25151Y40913D1*
X-24882Y40652D1*
X-24636Y40369D1*
X-24414Y40067D1*
X-24219Y39747D1*
X-24052Y39411D1*
X-23913Y39063D1*
X-23805Y38704D1*
X-23727Y38337D1*
X-23680Y37965D1*
X-23665Y37600D1*
X-23667Y37475D1*
Y14975D2*
X-23693Y14601D1*
X-23751Y14231D1*
X-23840Y13867D1*
X-23959Y13511D1*
X-24108Y13167D1*
X-24286Y12837D1*
X-24491Y12523D1*
X-24721Y12227D1*
X-24976Y11952D1*
X-25253Y11700D1*
X-25550Y11471D1*
X-25866Y11269D1*
X-26197Y11094D1*
X-26542Y10947D1*
X-26899Y10831D1*
X-27264Y10745D1*
X-27634Y10690D1*
X-28009Y10666D1*
X-28383Y10674D1*
X-28756Y10714D1*
X-29124Y10785D1*
X-29485Y10887D1*
X-29836Y11019D1*
X-30174Y11180D1*
X-30498Y11369D1*
X-30804Y11585D1*
X-31092Y11826D1*
X-31357Y12090D1*
X-31600Y12376D1*
X-31818Y12682D1*
X-32009Y13004D1*
X-32172Y13342D1*
X-32306Y13692D1*
X-32409Y14052D1*
X-32483Y14420D1*
X-32524Y14792D1*
X-32535Y15167D1*
X-32513Y15541D1*
X-32460Y15912D1*
X-32376Y16278D1*
X-32261Y16635D1*
X-32117Y16981D1*
X-31943Y17313D1*
X-31743Y17630D1*
X-31516Y17928D1*
X-31265Y18207D1*
X-30991Y18463D1*
X-30697Y18695D1*
X-30384Y18902D1*
X-30055Y19081D1*
X-29712Y19232D1*
X-29357Y19353D1*
X-28993Y19444D1*
X-28623Y19504D1*
X-28249Y19532D1*
X-27875Y19529D1*
X-27501Y19494D1*
X-27132Y19428D1*
X-26770Y19331D1*
X-26418Y19204D1*
X-26077Y19047D1*
X-25751Y18862D1*
X-25442Y18650D1*
X-25151Y18413D1*
X-24882Y18152D1*
X-24636Y17869D1*
X-24414Y17567D1*
X-24219Y17247D1*
X-24052Y16911D1*
X-23913Y16563D1*
X-23805Y16204D1*
X-23727Y15838D1*
X-23680Y15466D1*
X-23665Y15100D1*
X-23667Y14975D1*
X-8117Y20275D2*
X-8143Y19901D1*
X-8202Y19531D1*
X-8292Y19167D1*
X-8413Y18812D1*
X-8563Y18469D1*
X-8743Y18139D1*
X-8949Y17827D1*
X-9182Y17533D1*
X-9439Y17260D1*
X-9719Y17010D1*
X-10018Y16785D1*
X-10336Y16586D1*
X-10670Y16415D1*
X-11017Y16273D1*
X-11375Y16162D1*
X-11741Y16081D1*
X-12113Y16032D1*
X-12487Y16015D1*
X-12862Y16030D1*
X-13234Y16077D1*
X-13600Y16155D1*
X-13959Y16265D1*
X-14307Y16404D1*
X-14641Y16573D1*
X-14960Y16770D1*
X-15261Y16994D1*
X-15542Y17242D1*
X-15801Y17513D1*
X-16035Y17806D1*
X-16244Y18117D1*
X-16425Y18445D1*
X-16578Y18788D1*
X-16701Y19142D1*
X-16793Y19505D1*
X-16854Y19875D1*
X-16882Y20249D1*
X-16879Y20624D1*
X-16844Y20997D1*
X-16777Y21366D1*
X-16679Y21728D1*
X-16550Y22080D1*
X-16392Y22420D1*
X-16205Y22745D1*
X-15992Y23053D1*
X-15752Y23341D1*
X-15489Y23608D1*
X-15204Y23852D1*
X-14899Y24070D1*
X-14577Y24262D1*
X-14240Y24425D1*
X-13889Y24559D1*
X-13529Y24663D1*
X-13161Y24735D1*
X-12789Y24776D1*
X-12414Y24784D1*
X-12040Y24761D1*
X-11669Y24706D1*
X-11304Y24619D1*
X-10948Y24501D1*
X-10604Y24354D1*
X-10273Y24177D1*
X-9958Y23973D1*
X-9662Y23743D1*
X-9387Y23488D1*
X-9135Y23211D1*
X-8907Y22914D1*
X-8705Y22597D1*
X-8532Y22265D1*
X-8387Y21920D1*
X-8272Y21563D1*
X-8188Y21197D1*
X-8136Y20826D1*
X-8115Y20452D1*
X-8117Y20275D1*
Y35275D2*
X-8143Y34901D1*
X-8202Y34531D1*
X-8292Y34167D1*
X-8413Y33812D1*
X-8563Y33469D1*
X-8743Y33139D1*
X-8949Y32827D1*
X-9182Y32533D1*
X-9439Y32260D1*
X-9719Y32010D1*
X-10018Y31785D1*
X-10336Y31586D1*
X-10670Y31415D1*
X-11017Y31273D1*
X-11375Y31162D1*
X-11741Y31081D1*
X-12113Y31032D1*
X-12487Y31015D1*
X-12862Y31030D1*
X-13234Y31077D1*
X-13600Y31155D1*
X-13959Y31265D1*
X-14307Y31404D1*
X-14641Y31573D1*
X-14960Y31770D1*
X-15261Y31994D1*
X-15282Y32011D1*
X-15127Y31649D1*
X-15012Y31293D1*
X-14929Y30927D1*
X-14880Y30556D1*
X-14865Y30200D1*
X-14882Y29826D1*
X-14933Y29454D1*
X-15017Y29089D1*
X-15134Y28733D1*
X-15283Y28389D1*
X-15462Y28059D1*
X-15671Y27748D1*
X-15906Y27456D1*
X-16168Y27187D1*
X-16452Y26943D1*
X-16757Y26726D1*
X-17081Y26537D1*
X-17421Y26378D1*
X-17526Y26337D1*
X-17453Y26050D1*
X-17393Y25680D1*
X-17366Y25306D1*
X-17373Y24950D1*
X-17412Y24577D1*
X-17485Y24210D1*
X-17591Y23850D1*
X-17730Y23502D1*
X-17899Y23167D1*
X-18098Y22850D1*
X-18325Y22551D1*
X-18578Y22274D1*
X-18855Y22022D1*
X-19153Y21795D1*
X-19471Y21597D1*
X-19806Y21428D1*
X-20155Y21290D1*
X-20514Y21184D1*
X-20882Y21111D1*
X-21255Y21072D1*
X-21630Y21067D1*
X-22004Y21096D1*
X-22373Y21158D1*
X-22736Y21254D1*
X-23088Y21382D1*
X-23427Y21542D1*
X-23751Y21731D1*
X-24055Y21949D1*
X-24339Y22194D1*
X-24600Y22463D1*
X-24835Y22755D1*
X-25043Y23068D1*
X-25221Y23397D1*
X-25369Y23742D1*
X-25485Y24098D1*
X-25569Y24463D1*
X-25619Y24835D1*
X-25635Y25210D1*
X-25617Y25584D1*
X-25565Y25955D1*
X-25480Y26320D1*
X-25363Y26676D1*
X-25213Y27020D1*
X-25033Y27349D1*
X-24824Y27660D1*
X-24587Y27951D1*
X-24326Y28219D1*
X-24040Y28463D1*
X-23735Y28679D1*
X-23410Y28867D1*
X-23070Y29025D1*
X-22972Y29064D1*
X-23017Y29219D1*
X-23089Y29587D1*
X-23128Y29960D1*
X-23133Y30335D1*
X-23104Y30708D1*
X-23041Y31078D1*
X-22945Y31440D1*
X-22816Y31792D1*
X-22656Y32131D1*
X-22466Y32455D1*
X-22248Y32759D1*
X-22003Y33043D1*
X-21733Y33303D1*
X-21441Y33538D1*
X-21128Y33745D1*
X-20799Y33923D1*
X-20454Y34071D1*
X-20097Y34187D1*
X-19732Y34270D1*
X-19360Y34319D1*
X-18986Y34335D1*
X-18611Y34317D1*
X-18240Y34265D1*
X-17875Y34179D1*
X-17519Y34061D1*
X-17176Y33911D1*
X-16847Y33730D1*
X-16536Y33521D1*
X-16416Y33428D1*
X-16530Y33672D1*
X-16663Y34023D1*
X-16766Y34383D1*
X-16837Y34752D1*
X-16876Y35124D1*
X-16884Y35499D1*
X-16859Y35873D1*
X-16803Y36244D1*
X-16715Y36608D1*
X-16597Y36964D1*
X-16448Y37308D1*
X-16271Y37638D1*
X-16066Y37952D1*
X-15835Y38247D1*
X-15579Y38522D1*
X-15301Y38774D1*
X-15003Y39000D1*
X-14686Y39201D1*
X-14354Y39374D1*
X-14007Y39518D1*
X-13650Y39631D1*
X-13285Y39714D1*
X-12913Y39766D1*
X-12539Y39785D1*
X-12164Y39772D1*
X-11792Y39727D1*
X-11425Y39651D1*
X-11066Y39544D1*
X-10717Y39406D1*
X-10381Y39239D1*
X-10061Y39044D1*
X-9759Y38823D1*
X-9476Y38576D1*
X-9216Y38306D1*
X-8980Y38015D1*
X-8770Y37705D1*
X-8586Y37378D1*
X-8432Y37036D1*
X-8307Y36683D1*
X-8213Y36320D1*
X-8150Y35950D1*
X-8119Y35577D1*
X-8117Y35275D1*
X-10669Y27775D2*
X-10703Y27528D1*
X-10770Y27287D1*
X-10870Y27058D1*
X-10999Y26844D1*
X-11156Y26650D1*
X-11339Y26479D1*
X-11542Y26335D1*
X-11764Y26219D1*
X-11999Y26135D1*
X-12243Y26083D1*
X-12493Y26065D1*
X-12742Y26081D1*
X-12987Y26131D1*
X-13222Y26213D1*
X-13445Y26327D1*
X-13650Y26470D1*
X-13833Y26639D1*
X-13992Y26832D1*
X-14123Y27045D1*
X-14225Y27273D1*
X-14294Y27513D1*
X-14330Y27760D1*
X-14332Y28010D1*
X-14300Y28258D1*
X-14234Y28499D1*
X-14137Y28729D1*
X-14009Y28944D1*
X-13854Y29139D1*
X-13673Y29311D1*
X-13470Y29458D1*
X-13250Y29575D1*
X-13015Y29661D1*
X-12771Y29715D1*
X-12522Y29735D1*
X-12273Y29721D1*
X-12028Y29673D1*
X-11791Y29593D1*
X-11568Y29481D1*
X-11362Y29339D1*
X-11177Y29171D1*
X-11016Y28980D1*
X-10883Y28768D1*
X-10781Y28541D1*
X-10709Y28301D1*
X-10671Y28054D1*
X-10665Y27900D1*
X-10669Y27775D1*
X-4260Y38185D2*
X4385D1*
Y29415D1*
X-4385D1*
Y38185D1*
X-4260D1*
X-28660Y75685D2*
X-20215D1*
Y67115D1*
X-28785D1*
Y75685D1*
X-28660D1*
X-20217Y51275D2*
X-20244Y50901D1*
X-20304Y50531D1*
X-20396Y50168D1*
X-20519Y49814D1*
X-20673Y49472D1*
X-20857Y49145D1*
X-21068Y48835D1*
X-21305Y48545D1*
X-21567Y48276D1*
X-21851Y48032D1*
X-22155Y47813D1*
X-22478Y47622D1*
X-22816Y47460D1*
X-23167Y47328D1*
X-23528Y47227D1*
X-23896Y47158D1*
X-24269Y47121D1*
X-24644Y47117D1*
X-25018Y47146D1*
X-25388Y47208D1*
X-25751Y47302D1*
X-26104Y47427D1*
X-26445Y47582D1*
X-26772Y47767D1*
X-27080Y47979D1*
X-27369Y48218D1*
X-27637Y48481D1*
X-27880Y48766D1*
X-28097Y49071D1*
X-28287Y49395D1*
X-28448Y49733D1*
X-28578Y50085D1*
X-28678Y50446D1*
X-28745Y50815D1*
X-28780Y51188D1*
X-28782Y51563D1*
X-28751Y51937D1*
X-28688Y52306D1*
X-28593Y52669D1*
X-28466Y53022D1*
X-28309Y53362D1*
X-28123Y53688D1*
X-27909Y53996D1*
X-27669Y54284D1*
X-27405Y54550D1*
X-27119Y54792D1*
X-26812Y55007D1*
X-26488Y55196D1*
X-26149Y55355D1*
X-25797Y55484D1*
X-25435Y55582D1*
X-25066Y55647D1*
X-24693Y55681D1*
X-24318D1*
X-23944Y55649D1*
X-23575Y55584D1*
X-23213Y55487D1*
X-22860Y55359D1*
X-22521Y55200D1*
X-22196Y55013D1*
X-21889Y54798D1*
X-21602Y54557D1*
X-21337Y54291D1*
X-21097Y54004D1*
X-20882Y53696D1*
X-20695Y53371D1*
X-20538Y53031D1*
X-20410Y52679D1*
X-20314Y52316D1*
X-20250Y51947D1*
X-20219Y51573D1*
X-20217Y51275D1*
X-26874Y61275D2*
X-26894Y61026D1*
X-26934Y60779D1*
X-26993Y60536D1*
X-27072Y60299D1*
X-27169Y60069D1*
X-27284Y59847D1*
X-27417Y59635D1*
X-27566Y59435D1*
X-27731Y59247D1*
X-27910Y59072D1*
X-28102Y58913D1*
X-28307Y58769D1*
X-28522Y58643D1*
X-28747Y58533D1*
X-28980Y58443D1*
X-29219Y58371D1*
X-29464Y58318D1*
X-29711Y58285D1*
X-29961Y58272D1*
X-30211Y58279D1*
X-30459Y58306D1*
X-30705Y58352D1*
X-30946Y58418D1*
X-31181Y58503D1*
X-31409Y58607D1*
X-31627Y58728D1*
X-31835Y58866D1*
X-32032Y59021D1*
X-32215Y59191D1*
X-32384Y59375D1*
X-32538Y59571D1*
X-32676Y59780D1*
X-32797Y59999D1*
X-32900Y60226D1*
X-32984Y60462D1*
X-33050Y60703D1*
X-33096Y60949D1*
X-33122Y61197D1*
X-33128Y61447D1*
X-33114Y61697D1*
X-33081Y61944D1*
X-33027Y62188D1*
X-32955Y62428D1*
X-32863Y62660D1*
X-32754Y62885D1*
X-32626Y63100D1*
X-32482Y63304D1*
X-32322Y63496D1*
X-32147Y63675D1*
X-31959Y63839D1*
X-31758Y63988D1*
X-31546Y64120D1*
X-31324Y64234D1*
X-31093Y64331D1*
X-30856Y64409D1*
X-30613Y64468D1*
X-30366Y64507D1*
X-30117Y64526D1*
X-29867D1*
X-29618Y64505D1*
X-29371Y64465D1*
X-29129Y64405D1*
X-28892Y64325D1*
X-28662Y64228D1*
X-28440Y64112D1*
X-28229Y63978D1*
X-28028Y63829D1*
X-27841Y63664D1*
X-27667Y63484D1*
X-27508Y63291D1*
X-27365Y63086D1*
X-27239Y62871D1*
X-27130Y62645D1*
X-27040Y62412D1*
X-26969Y62173D1*
X-26917Y61928D1*
X-26884Y61681D1*
X-26872Y61400D1*
X-26874Y61275D1*
X-11067Y11275D2*
X-11092Y10901D1*
X-11147Y10530D1*
X-11233Y10165D1*
X-11347Y9808D1*
X-11490Y9462D1*
X-11660Y9128D1*
X-11857Y8809D1*
X-12079Y8506D1*
X-12325Y8223D1*
X-12593Y7961D1*
X-12881Y7721D1*
X-13187Y7505D1*
X-13510Y7315D1*
X-13848Y7151D1*
X-14197Y7015D1*
X-14556Y6908D1*
X-14923Y6831D1*
X-15295Y6783D1*
X-15669Y6765D1*
X-16044Y6778D1*
X-16416Y6821D1*
X-16784Y6894D1*
X-17145Y6996D1*
X-17496Y7127D1*
X-17836Y7286D1*
X-18161Y7472D1*
X-18470Y7684D1*
X-18762Y7920D1*
X-19033Y8179D1*
X-19282Y8459D1*
X-19508Y8758D1*
X-19709Y9074D1*
X-19884Y9406D1*
X-20032Y9751D1*
X-20151Y10106D1*
X-20241Y10470D1*
X-20301Y10840D1*
X-20331Y11214D1*
Y11589D1*
X-20301Y11962D1*
X-20240Y12332D1*
X-20150Y12696D1*
X-20031Y13052D1*
X-19883Y13396D1*
X-19708Y13728D1*
X-19507Y14044D1*
X-19281Y14343D1*
X-19031Y14623D1*
X-18760Y14881D1*
X-18468Y15117D1*
X-18159Y15329D1*
X-17833Y15515D1*
X-17494Y15674D1*
X-17143Y15805D1*
X-16782Y15907D1*
X-16414Y15980D1*
X-16042Y16022D1*
X-15667Y16035D1*
X-15292Y16017D1*
X-14921Y15969D1*
X-14554Y15891D1*
X-14195Y15784D1*
X-13845Y15648D1*
X-13508Y15484D1*
X-13185Y15293D1*
X-12879Y15078D1*
X-12591Y14837D1*
X-12323Y14575D1*
X-12078Y14292D1*
X-11856Y13989D1*
X-11659Y13670D1*
X-11489Y13336D1*
X-11346Y12990D1*
X-11232Y12633D1*
X-11147Y12267D1*
X-11092Y11897D1*
X-11067Y11523D1*
Y11275D1*
X-1Y7990D2*
X-223Y7798D1*
X-523Y7574D1*
X-841Y7375D1*
X-1174Y7203D1*
X-1519Y7058D1*
X-1876Y6941D1*
X-2240Y6853D1*
X-2611Y6795D1*
X-2984Y6768D1*
X-3359Y6770D1*
X-3733Y6803D1*
X-4102Y6866D1*
X-4466Y6959D1*
X-4820Y7080D1*
X-5164Y7230D1*
X-5494Y7407D1*
X-5809Y7611D1*
X-6107Y7839D1*
X-6385Y8090D1*
X-6642Y8363D1*
X-6876Y8656D1*
X-7085Y8967D1*
X-7269Y9294D1*
X-7426Y9634D1*
X-7554Y9987D1*
X-7654Y10348D1*
X-7724Y10716D1*
X-7765Y11089D1*
X-7775Y11464D1*
X-7754Y11838D1*
X-7704Y12210D1*
X-7623Y12576D1*
X-7514Y12934D1*
X-7375Y13283D1*
X-7209Y13619D1*
X-7017Y13940D1*
X-6799Y14245D1*
X-6557Y14532D1*
X-6293Y14798D1*
X-6008Y15041D1*
X-5704Y15261D1*
X-5384Y15456D1*
X-5048Y15624D1*
X-4701Y15764D1*
X-4343Y15876D1*
X-3977Y15959D1*
X-3606Y16012D1*
X-3232Y16034D1*
X-2857Y16026D1*
X-2484Y15988D1*
X-2115Y15920D1*
X-1753Y15823D1*
X-1401Y15696D1*
X-1059Y15542D1*
X-731Y15360D1*
X-419Y15152D1*
X-125Y14920D1*
X1Y14808D1*
X272Y15041D1*
X576Y15261D1*
X896Y15456D1*
X1232Y15624D1*
X1579Y15764D1*
X1937Y15876D1*
X2303Y15959D1*
X2674Y16012D1*
X3048Y16034D1*
X3423Y16026D1*
X3796Y15988D1*
X4165Y15920D1*
X4527Y15823D1*
X4879Y15696D1*
X5221Y15542D1*
X5549Y15360D1*
X5861Y15152D1*
X6155Y14920D1*
X6430Y14665D1*
X6683Y14388D1*
X6913Y14092D1*
X7118Y13778D1*
X7297Y13449D1*
X7449Y13106D1*
X7573Y12753D1*
X7668Y12390D1*
X7733Y12021D1*
X7768Y11647D1*
X7773Y11275D1*
X7748Y10901D1*
X7693Y10530D1*
X7607Y10165D1*
X7493Y9808D1*
X7350Y9462D1*
X7180Y9128D1*
X6983Y8809D1*
X6761Y8506D1*
X6515Y8223D1*
X6247Y7961D1*
X5959Y7721D1*
X5653Y7505D1*
X5330Y7315D1*
X4992Y7151D1*
X4643Y7015D1*
X4284Y6908D1*
X3917Y6831D1*
X3545Y6783D1*
X3171Y6765D1*
X2796Y6778D1*
X2424Y6821D1*
X2056Y6894D1*
X1695Y6996D1*
X1344Y7127D1*
X1004Y7286D1*
X679Y7472D1*
X370Y7684D1*
X78Y7920D1*
X0Y7991D1*
X20333Y11275D2*
X20308Y10901D1*
X20253Y10530D1*
X20167Y10165D1*
X20053Y9808D1*
X19910Y9462D1*
X19740Y9128D1*
X19543Y8809D1*
X19321Y8506D1*
X19075Y8223D1*
X18807Y7961D1*
X18519Y7721D1*
X18213Y7505D1*
X17890Y7315D1*
X17552Y7151D1*
X17203Y7015D1*
X16844Y6908D1*
X16477Y6831D1*
X16105Y6783D1*
X15731Y6765D1*
X15356Y6778D1*
X14984Y6821D1*
X14616Y6894D1*
X14255Y6996D1*
X13904Y7127D1*
X13564Y7286D1*
X13239Y7472D1*
X12930Y7684D1*
X12638Y7920D1*
X12367Y8179D1*
X12118Y8459D1*
X11892Y8758D1*
X11691Y9074D1*
X11516Y9406D1*
X11368Y9751D1*
X11249Y10106D1*
X11159Y10470D1*
X11099Y10840D1*
X11069Y11214D1*
Y11589D1*
X11099Y11962D1*
X11160Y12332D1*
X11250Y12696D1*
X11369Y13052D1*
X11517Y13396D1*
X11692Y13728D1*
X11893Y14044D1*
X12119Y14343D1*
X12369Y14623D1*
X12640Y14881D1*
X12932Y15117D1*
X13241Y15329D1*
X13567Y15515D1*
X13906Y15674D1*
X14257Y15805D1*
X14618Y15907D1*
X14986Y15980D1*
X15358Y16022D1*
X15733Y16035D1*
X16108Y16017D1*
X16479Y15969D1*
X16846Y15891D1*
X17205Y15784D1*
X17555Y15648D1*
X17892Y15484D1*
X18215Y15293D1*
X18521Y15078D1*
X18809Y14837D1*
X19077Y14575D1*
X19322Y14292D1*
X19544Y13989D1*
X19741Y13670D1*
X19911Y13336D1*
X20054Y12990D1*
X20168Y12633D1*
X20253Y12267D1*
X20308Y11897D1*
X20333Y11523D1*
Y11275D1*
X-27374Y4275D2*
X-27391Y4026D1*
X-27425Y3778D1*
X-27477Y3533D1*
X-27545Y3293D1*
X-27629Y3058D1*
X-27730Y2829D1*
X-27845Y2607D1*
X-27976Y2394D1*
X-28122Y2191D1*
X-28281Y1998D1*
X-28452Y1817D1*
X-28636Y1647D1*
X-28785Y1527D1*
X-26125Y1525D1*
X28785D1*
X28560Y1714D1*
X28381Y1889D1*
X28215Y2075D1*
X28061Y2272D1*
X27922Y2480D1*
X27797Y2696D1*
X27687Y2921D1*
X27593Y3152D1*
X27515Y3390D1*
X27454Y3632D1*
X27409Y3878D1*
X27382Y4127D1*
X27372Y4376D1*
X27379Y4626D1*
X27403Y4875D1*
X27444Y5121D1*
X27502Y5365D1*
X27577Y5603D1*
X27668Y5836D1*
X27775Y6062D1*
X27897Y6280D1*
X28034Y6489D1*
X28184Y6688D1*
X28349Y6877D1*
X28525Y7054D1*
X28714Y7218D1*
X28913Y7368D1*
X29123Y7505D1*
X29341Y7627D1*
X29567Y7733D1*
X29800Y7824D1*
X30038Y7899D1*
X30282Y7957D1*
X30528Y7998D1*
X30777Y8021D1*
X31027Y8028D1*
X31277Y8018D1*
X31525Y7990D1*
X31771Y7945D1*
X32013Y7884D1*
X32251Y7806D1*
X32482Y7712D1*
X32707Y7602D1*
X32923Y7477D1*
X33130Y7337D1*
X33328Y7183D1*
X33514Y7017D1*
X33688Y6837D1*
X33875Y6612D1*
Y55275D1*
X30527D1*
X30525Y53050D1*
X30521Y46375D1*
X30525Y46275D1*
Y46075D1*
X23475D1*
X23479Y47525D1*
X23475Y47625D1*
X23479Y52225D1*
X23475Y52175D1*
Y55273D1*
X21250Y55275D1*
X-3Y55277D1*
X-88Y55312D1*
X-6551Y61774D1*
X-19500Y61775D1*
X-19605Y61836D1*
X-19625Y61900D1*
Y76275D1*
X-33875D1*
Y6615D1*
X-33651Y6877D1*
X-33475Y7054D1*
X-33286Y7218D1*
X-33087Y7368D1*
X-32877Y7505D1*
X-32659Y7627D1*
X-32433Y7733D1*
X-32200Y7824D1*
X-31962Y7899D1*
X-31718Y7957D1*
X-31472Y7998D1*
X-31223Y8021D1*
X-30973Y8028D1*
X-30723Y8018D1*
X-30475Y7990D1*
X-30229Y7945D1*
X-29987Y7884D1*
X-29749Y7806D1*
X-29518Y7712D1*
X-29293Y7602D1*
X-29077Y7477D1*
X-28870Y7337D1*
X-28672Y7183D1*
X-28486Y7017D1*
X-28312Y6837D1*
X-28151Y6646D1*
X-28003Y6445D1*
X-27869Y6234D1*
X-27750Y6014D1*
X-27647Y5786D1*
X-27559Y5552D1*
X-27488Y5313D1*
X-27434Y5069D1*
X-27396Y4822D1*
X-27376Y4572D1*
X-27374Y4275D1*
X-34350Y100028D2*
X-33027D1*
X-27973D2*
X-22566D1*
X9964D2*
X34350D1*
X-34350Y99782D2*
X-33261D1*
X-27739D2*
X-22855D1*
X10254D2*
X34350D1*
X-34350Y99535D2*
X-33457D1*
X-27543D2*
X-23101D1*
X10500D2*
X34350D1*
X-34350Y99288D2*
X-33625D1*
X-27375D2*
X-26550D1*
X10746D2*
X29680D1*
X32320D2*
X34350D1*
X-34350Y99042D2*
X-33761D1*
X-27239D2*
X-26550D1*
X10996D2*
X29161D1*
X32839D2*
X34350D1*
X-34350Y98795D2*
X-33875D1*
X-27125D2*
X-26550D1*
X11242D2*
X28789D1*
X33211D2*
X34350D1*
X-34350Y98548D2*
X-33968D1*
X-27032D2*
X-26550D1*
X-19450D2*
X-14086D1*
X-5114D2*
X-3789D1*
X11488D2*
X28496D1*
X33504D2*
X34350D1*
X-34350Y98302D2*
X-34039D1*
X-26961D2*
X-26550D1*
X-19450D2*
X-14336D1*
X-4868D2*
X-4035D1*
X11711D2*
X28254D1*
X33746D2*
X34350D1*
X-34350Y98055D2*
X-34093D1*
X-26907D2*
X-26550D1*
X-19321D2*
X-14890D1*
X-4618D2*
X-4281D1*
X11808D2*
X28055D1*
X33945D2*
X34350D1*
X-34350Y97808D2*
X-34129D1*
X-26871D2*
X-26550D1*
X-18371D2*
X-14890D1*
X11820D2*
X27891D1*
X34109D2*
X34350D1*
X-34350Y97562D2*
X-34148D1*
X-26852D2*
X-26550D1*
X-17883D2*
X-14890D1*
X-10172D2*
X-9316D1*
X-7485D2*
X-6199D1*
X-2704D2*
X8704D1*
X11820D2*
X27750D1*
X34250D2*
X34350D1*
X-34350Y97315D2*
X-34152D1*
X-26848D2*
X-26550D1*
X-17633D2*
X-14890D1*
X-10172D2*
X-9570D1*
X-7231D2*
X-5949D1*
X-2950D2*
X8950D1*
X11820D2*
X27633D1*
X-34350Y97068D2*
X-34136D1*
X-26864D2*
X-26550D1*
X-17473D2*
X-14890D1*
X-10172D2*
X-9730D1*
X-7071D2*
X-5769D1*
X-3059D2*
X9071D1*
X11820D2*
X27539D1*
X-34350Y96822D2*
X-34105D1*
X-26895D2*
X-26550D1*
X-17371D2*
X-14890D1*
X-10172D2*
X-9828D1*
X-6973D2*
X-5769D1*
X-3059D2*
X-2078D1*
X-360D2*
X461D1*
X2179D2*
X9071D1*
X11820D2*
X27465D1*
X-34350Y96575D2*
X-34058D1*
X-26942D2*
X-26550D1*
X-17321D2*
X-14890D1*
X-10172D2*
X-9879D1*
X2179D2*
X5211D1*
X14410D2*
X27411D1*
X-34350Y96328D2*
X-33992D1*
X-27008D2*
X-26550D1*
X-17313D2*
X-14890D1*
X-10172D2*
X-9886D1*
X2179D2*
X5211D1*
X14410D2*
X27371D1*
X-34350Y96082D2*
X-33906D1*
X-27094D2*
X-26550D1*
X-17344D2*
X-14890D1*
X-10172D2*
X-9855D1*
X2179D2*
X5211D1*
X14410D2*
X27352D1*
X-34350Y95835D2*
X-33796D1*
X-27204D2*
X-26550D1*
X-17422D2*
X-14890D1*
X-10172D2*
X-9777D1*
X2179D2*
X5211D1*
X17000D2*
X18668D1*
X19464D2*
X27348D1*
X-34350Y95588D2*
X-33668D1*
X-27332D2*
X-26550D1*
X-17555D2*
X-14890D1*
X-10172D2*
X-9644D1*
X2179D2*
X5211D1*
X17246D2*
X18297D1*
X19836D2*
X27360D1*
X-34350Y95342D2*
X-33511D1*
X-27489D2*
X-26078D1*
X-17762D2*
X-14890D1*
X-10172D2*
X-9589D1*
X2179D2*
X5211D1*
X17496D2*
X18118D1*
X20011D2*
X27391D1*
X-34350Y95095D2*
X-33328D1*
X-27672D2*
X-26078D1*
X-18059D2*
X-14539D1*
X-11352D2*
X-9589D1*
X2179D2*
X5211D1*
X17742D2*
X18032D1*
X20101D2*
X27438D1*
X-34350Y94848D2*
X-33105D1*
X-27895D2*
X-26078D1*
X-18059D2*
X-14539D1*
X-11352D2*
X-9589D1*
X2179D2*
X5211D1*
X20125D2*
X24508D1*
X26089D2*
X27504D1*
X-34350Y94602D2*
X-32836D1*
X-28164D2*
X-26078D1*
X-15110D2*
X-14539D1*
X-11352D2*
X-9589D1*
X2179D2*
X5211D1*
X20089D2*
X24207D1*
X26394D2*
X27586D1*
X-34350Y94355D2*
X-32496D1*
X-28504D2*
X-24808D1*
X-15110D2*
X-14539D1*
X-11352D2*
X-9589D1*
X2179D2*
X5211D1*
X14410D2*
X16411D1*
X20132D2*
X24020D1*
X26582D2*
X27692D1*
X-34350Y94108D2*
X-32050D1*
X-28950D2*
X-24488D1*
X-21911D2*
X-20089D1*
X-15110D2*
X-14539D1*
X-11352D2*
X-9589D1*
X-6957D2*
X2711D1*
X5089D2*
X5211D1*
X14410D2*
X16657D1*
X26699D2*
X27821D1*
X34179D2*
X34350D1*
X-34350Y93862D2*
X-31328D1*
X-29672D2*
X-24488D1*
X-21911D2*
X-20089D1*
X-15110D2*
X-14539D1*
X-11352D2*
X-9589D1*
X-7204D2*
X2711D1*
X5089D2*
X11610D1*
X26765D2*
X27973D1*
X34027D2*
X34350D1*
X-34350Y93615D2*
X-24488D1*
X-21911D2*
X-20089D1*
X-15110D2*
X-14539D1*
X-11352D2*
X-9589D1*
X-7211D2*
X2711D1*
X5089D2*
X11649D1*
X26789D2*
X28157D1*
X33843D2*
X34350D1*
X-34350Y93368D2*
X-24488D1*
X-21911D2*
X-20089D1*
X-15110D2*
X-14539D1*
X-11352D2*
X-9589D1*
X-7211D2*
X2711D1*
X5089D2*
X11797D1*
X26773D2*
X28375D1*
X33625D2*
X34350D1*
X-34350Y93122D2*
X-24488D1*
X-21911D2*
X-20089D1*
X-15110D2*
X-14539D1*
X-11352D2*
X-9589D1*
X-7211D2*
X2711D1*
X5089D2*
X12043D1*
X26711D2*
X28641D1*
X33359D2*
X34350D1*
X-34350Y92875D2*
X-14761D1*
X-11352D2*
X-9589D1*
X-7211D2*
X2711D1*
X5089D2*
X12289D1*
X26597D2*
X28973D1*
X33027D2*
X34350D1*
X-34350Y92628D2*
X-15007D1*
X-11352D2*
X-9589D1*
X-7211D2*
X2711D1*
X5089D2*
X12547D1*
X26421D2*
X29407D1*
X32593D2*
X34350D1*
X-34350Y92382D2*
X-15254D1*
X-11352D2*
X-9589D1*
X-7211D2*
X2711D1*
X5089D2*
X9746D1*
X26136D2*
X30090D1*
X31910D2*
X34350D1*
X-34350Y92135D2*
X-15500D1*
X-13430D2*
X-9589D1*
X-7211D2*
X2711D1*
X5953D2*
X9500D1*
X24800D2*
X34350D1*
X-34350Y91888D2*
X-31488D1*
X-27512D2*
X-24488D1*
X-21911D2*
X-15746D1*
X-13676D2*
X-9589D1*
X-7211D2*
X2711D1*
X6246D2*
X9254D1*
X25046D2*
X34350D1*
X-34350Y91642D2*
X-31488D1*
X-27512D2*
X-24488D1*
X-21911D2*
X-20089D1*
X-13922D2*
X2711D1*
X6496D2*
X9110D1*
X20355D2*
X23223D1*
X25293D2*
X34350D1*
X-34350Y91395D2*
X-31488D1*
X-27512D2*
X-24488D1*
X-21911D2*
X-20089D1*
X-14168D2*
X2711D1*
X6675D2*
X9071D1*
X20515D2*
X23469D1*
X25476D2*
X34350D1*
X-34350Y91148D2*
X-31488D1*
X-27512D2*
X-24488D1*
X-21911D2*
X-20089D1*
X-14414D2*
X2711D1*
X6738D2*
X9071D1*
X10586D2*
X15817D1*
X20578D2*
X23715D1*
X25539D2*
X34350D1*
X-34350Y90902D2*
X-31488D1*
X-14664D2*
X-7089D1*
X2109D2*
X2711D1*
X6738D2*
X9071D1*
X10550D2*
X16063D1*
X20570D2*
X23961D1*
X25539D2*
X34350D1*
X-34350Y90655D2*
X-31488D1*
X-14911D2*
X-7089D1*
X2109D2*
X2567D1*
X14410D2*
X16309D1*
X20675D2*
X24059D1*
X25539D2*
X34350D1*
X-34350Y90408D2*
X-31488D1*
X-15110D2*
X-13648D1*
X-11352D2*
X-7089D1*
X2109D2*
X2469D1*
X14410D2*
X16696D1*
X20937D2*
X24059D1*
X25539D2*
X34350D1*
X-34350Y90162D2*
X-31488D1*
X-15110D2*
X-13648D1*
X-11352D2*
X-7089D1*
X2109D2*
X2418D1*
X14410D2*
X17059D1*
X21070D2*
X24059D1*
X25539D2*
X34350D1*
X-34350Y89915D2*
X-31488D1*
X-18250D2*
X-13648D1*
X-11352D2*
X-7089D1*
X2109D2*
X2414D1*
X15222D2*
X16996D1*
X21132D2*
X24059D1*
X25539D2*
X34350D1*
X-34350Y89668D2*
X-31488D1*
X-27512D2*
X-13648D1*
X-11352D2*
X-7089D1*
X2109D2*
X2450D1*
X15468D2*
X16996D1*
X21132D2*
X24059D1*
X25539D2*
X34350D1*
X-34350Y89422D2*
X-31488D1*
X-27512D2*
X-13648D1*
X-11352D2*
X-7089D1*
X2109D2*
X2528D1*
X15714D2*
X17059D1*
X21074D2*
X24059D1*
X25539D2*
X34350D1*
X-34350Y89175D2*
X-31488D1*
X-27512D2*
X-13648D1*
X-11352D2*
X-7089D1*
X2109D2*
X2664D1*
X15961D2*
X17192D1*
X18906D2*
X19223D1*
X20937D2*
X24039D1*
X25539D2*
X34350D1*
X-34350Y88928D2*
X-31488D1*
X-27512D2*
X-13648D1*
X-11352D2*
X-7089D1*
X2109D2*
X2875D1*
X4921D2*
X5211D1*
X16207D2*
X17450D1*
X18648D2*
X19485D1*
X20679D2*
X23793D1*
X25539D2*
X34350D1*
X-34350Y88682D2*
X-14890D1*
X-10172D2*
X-9234D1*
X-7766D2*
X-7089D1*
X2109D2*
X3239D1*
X4562D2*
X5211D1*
X25507D2*
X34350D1*
X-34350Y88435D2*
X-14890D1*
X-10172D2*
X-9562D1*
X-7438D2*
X-7089D1*
X2109D2*
X5211D1*
X14410D2*
X14629D1*
X25367D2*
X34350D1*
X-34350Y88188D2*
X-14890D1*
X-10172D2*
X-9761D1*
X-7239D2*
X5211D1*
X14410D2*
X14875D1*
X25125D2*
X34350D1*
X-34350Y87942D2*
X-14890D1*
X-7114D2*
X6532D1*
X9593D2*
X11680D1*
X13695D2*
X15121D1*
X24879D2*
X34350D1*
X-34350Y87695D2*
X-14890D1*
X-7039D2*
X6532D1*
X9820D2*
X11868D1*
X13941D2*
X15368D1*
X24632D2*
X34350D1*
X-34350Y87448D2*
X-22242D1*
X-21758D2*
X-14890D1*
X-7012D2*
X6532D1*
X9925D2*
X12118D1*
X24379D2*
X34350D1*
X-34350Y87202D2*
X-22863D1*
X-21137D2*
X-14890D1*
X-7024D2*
X4090D1*
X10441D2*
X12364D1*
X23933D2*
X34350D1*
X-34350Y86955D2*
X-30496D1*
X-28504D2*
X-23136D1*
X-20864D2*
X-14890D1*
X-7079D2*
X4090D1*
X24179D2*
X34350D1*
X-34350Y86708D2*
X-30882D1*
X-28118D2*
X-23308D1*
X-20692D2*
X-14890D1*
X-7184D2*
X1610D1*
X3988D2*
X4092D1*
X24429D2*
X34350D1*
X-34350Y86462D2*
X-31121D1*
X-27879D2*
X-23414D1*
X-20586D2*
X-14890D1*
X-10172D2*
X-9648D1*
X-7352D2*
X1610D1*
X3988D2*
X4092D1*
X12890D2*
X13102D1*
X24675D2*
X34350D1*
X-34350Y86215D2*
X-31285D1*
X-27715D2*
X-23472D1*
X-20528D2*
X-14890D1*
X-10172D2*
X-9386D1*
X-7614D2*
X1610D1*
X3988D2*
X4092D1*
X12890D2*
X13473D1*
X24921D2*
X34350D1*
X-34350Y85968D2*
X-31394D1*
X-27606D2*
X-23488D1*
X-20512D2*
X-14609D1*
X-11352D2*
X-8836D1*
X-8164D2*
X1610D1*
X3988D2*
X4092D1*
X12890D2*
X16360D1*
X20640D2*
X22211D1*
X22992D2*
X23098D1*
X25168D2*
X34350D1*
X-34350Y85722D2*
X-31461D1*
X-27539D2*
X-23464D1*
X-20536D2*
X-14558D1*
X-11352D2*
X1610D1*
X3988D2*
X4092D1*
X12890D2*
X16360D1*
X20640D2*
X21696D1*
X25414D2*
X34350D1*
X-34350Y85475D2*
X-31488D1*
X-27512D2*
X-23394D1*
X-20606D2*
X-14539D1*
X-11352D2*
X1610D1*
X3988D2*
X4092D1*
X12890D2*
X16360D1*
X25660D2*
X34350D1*
X-34350Y85228D2*
X-31480D1*
X-27520D2*
X-23269D1*
X-20731D2*
X-17640D1*
X-15762D2*
X-14738D1*
X-11352D2*
X1610D1*
X3988D2*
X4092D1*
X12890D2*
X16360D1*
X25906D2*
X34350D1*
X-34350Y84982D2*
X-31437D1*
X-27563D2*
X-23339D1*
X-20860D2*
X-20039D1*
X-15762D2*
X-14738D1*
X-12860D2*
X1610D1*
X3988D2*
X4161D1*
X12890D2*
X16360D1*
X26156D2*
X34350D1*
X-34350Y84735D2*
X-31355D1*
X-27645D2*
X-23339D1*
X-20860D2*
X-20039D1*
X-15762D2*
X-14738D1*
X-12860D2*
X1610D1*
X12890D2*
X16360D1*
X24078D2*
X24329D1*
X26402D2*
X34350D1*
X-34350Y84488D2*
X-31226D1*
X-27774D2*
X-23339D1*
X-20860D2*
X-20039D1*
X-15762D2*
X-14738D1*
X-12860D2*
X1610D1*
X12890D2*
X16360D1*
X24089D2*
X24575D1*
X26648D2*
X34350D1*
X-34350Y84242D2*
X-31039D1*
X-27961D2*
X-23339D1*
X-20860D2*
X-20039D1*
X-15762D2*
X-14738D1*
X-12860D2*
X1610D1*
X7679D2*
X7891D1*
X12890D2*
X16360D1*
X24058D2*
X24821D1*
X26894D2*
X34350D1*
X-34350Y83995D2*
X-30757D1*
X-28243D2*
X-23339D1*
X-20860D2*
X-20039D1*
X-15762D2*
X-14738D1*
X-12860D2*
X1610D1*
X7429D2*
X7891D1*
X12890D2*
X16360D1*
X23980D2*
X25071D1*
X27140D2*
X34350D1*
X-34350Y83748D2*
X-30234D1*
X-28766D2*
X-23339D1*
X-20860D2*
X-20039D1*
X-15762D2*
X-14738D1*
X-12860D2*
X1610D1*
X7183D2*
X7891D1*
X12890D2*
X16360D1*
X23851D2*
X25317D1*
X27386D2*
X34350D1*
X-34350Y83502D2*
X-23339D1*
X-20860D2*
X-20039D1*
X-15762D2*
X-14738D1*
X-12860D2*
X1610D1*
X6918D2*
X7891D1*
X12890D2*
X16360D1*
X20640D2*
X21551D1*
X23648D2*
X25563D1*
X27632D2*
X34350D1*
X-34350Y83255D2*
X-23339D1*
X-20860D2*
X-20039D1*
X-15762D2*
X-14738D1*
X-12860D2*
X1610D1*
X3988D2*
X4161D1*
X6640D2*
X7891D1*
X10511D2*
X16360D1*
X20640D2*
X21891D1*
X23308D2*
X25809D1*
X27882D2*
X34350D1*
X-34350Y83008D2*
X-17640D1*
X-15762D2*
X-14738D1*
X-12860D2*
X4161D1*
X6640D2*
X7891D1*
X10511D2*
X17762D1*
X19238D2*
X26055D1*
X28129D2*
X34350D1*
X-34350Y82762D2*
X17762D1*
X19238D2*
X26301D1*
X28375D2*
X34350D1*
X-34350Y82515D2*
X17762D1*
X19238D2*
X26551D1*
X28621D2*
X34350D1*
X-34350Y82268D2*
X17762D1*
X19238D2*
X26797D1*
X28867D2*
X34350D1*
X-34350Y82022D2*
X17762D1*
X19238D2*
X27043D1*
X29113D2*
X34350D1*
X-34350Y81775D2*
X17762D1*
X19238D2*
X27289D1*
X29359D2*
X34350D1*
X-34350Y81528D2*
X17762D1*
X19238D2*
X27536D1*
X29609D2*
X34350D1*
X-34350Y81282D2*
X17762D1*
X19238D2*
X27782D1*
X29828D2*
X34350D1*
X-34350Y81035D2*
X17762D1*
X19238D2*
X28028D1*
X29925D2*
X34350D1*
X-34350Y80788D2*
X17762D1*
X19238D2*
X28278D1*
X29941D2*
X34350D1*
X-34350Y80542D2*
X17762D1*
X19238D2*
X28461D1*
X29941D2*
X34350D1*
X-34350Y80295D2*
X17762D1*
X19238D2*
X27860D1*
X30441D2*
X30860D1*
X33441D2*
X34350D1*
X-34350Y80048D2*
X15211D1*
X17191D2*
X17512D1*
X19488D2*
X19809D1*
X21789D2*
X21905D1*
X23097D2*
X27860D1*
X30441D2*
X30860D1*
X33441D2*
X34350D1*
X-34350Y79802D2*
X15211D1*
X17191D2*
X17512D1*
X19488D2*
X19809D1*
X23492D2*
X27860D1*
X30441D2*
X30860D1*
X33441D2*
X34350D1*
X-34350Y79555D2*
X15211D1*
X17191D2*
X17512D1*
X19488D2*
X19809D1*
X23714D2*
X27860D1*
X30441D2*
X30860D1*
X33441D2*
X34350D1*
X-34350Y79308D2*
X15211D1*
X17191D2*
X17512D1*
X19488D2*
X19809D1*
X23859D2*
X27860D1*
X30441D2*
X30860D1*
X33441D2*
X34350D1*
X-34350Y79062D2*
X15211D1*
X17191D2*
X17512D1*
X19488D2*
X19809D1*
X23945D2*
X27860D1*
X30441D2*
X30860D1*
X33441D2*
X34350D1*
X-34350Y78815D2*
X15211D1*
X17191D2*
X17512D1*
X19488D2*
X19809D1*
X23984D2*
X27860D1*
X30441D2*
X30860D1*
X33441D2*
X34350D1*
X-34350Y78568D2*
X15211D1*
X17191D2*
X17512D1*
X19488D2*
X19809D1*
X23984D2*
X34350D1*
X-34350Y78322D2*
X15211D1*
X17191D2*
X17512D1*
X19488D2*
X19809D1*
X23941D2*
X34350D1*
X-34350Y78075D2*
X15211D1*
X17191D2*
X17512D1*
X19488D2*
X19809D1*
X23851D2*
X34350D1*
X-34350Y77828D2*
X15211D1*
X17191D2*
X17512D1*
X19488D2*
X19809D1*
X23703D2*
X34350D1*
X-34350Y77582D2*
X15211D1*
X17191D2*
X17512D1*
X19488D2*
X19809D1*
X23472D2*
X34350D1*
X-17852Y77335D2*
X15211D1*
X17191D2*
X17512D1*
X19488D2*
X19809D1*
X21789D2*
X21942D1*
X23054D2*
X27860D1*
X33441D2*
X34350D1*
X-17852Y77088D2*
X14911D1*
X17089D2*
X17809D1*
X19988D2*
X27860D1*
X33441D2*
X34350D1*
X-17852Y76842D2*
X14911D1*
X17089D2*
X17809D1*
X19988D2*
X27860D1*
X33441D2*
X34350D1*
X-17852Y76595D2*
X14911D1*
X17089D2*
X17809D1*
X19988D2*
X27860D1*
X33441D2*
X34350D1*
X-17852Y76348D2*
X14911D1*
X17089D2*
X17809D1*
X19988D2*
X27860D1*
X33441D2*
X34350D1*
X-17852Y76102D2*
X14911D1*
X17089D2*
X17809D1*
X19988D2*
X27860D1*
X33441D2*
X34350D1*
X-17852Y75855D2*
X14911D1*
X17089D2*
X17809D1*
X19988D2*
X27860D1*
X30441D2*
X30860D1*
X33441D2*
X34350D1*
X-17852Y75608D2*
X14911D1*
X17089D2*
X17809D1*
X19988D2*
X31360D1*
X32839D2*
X34350D1*
X-17852Y75362D2*
X14911D1*
X17089D2*
X17809D1*
X19988D2*
X31360D1*
X32839D2*
X34350D1*
X-17852Y75115D2*
X8602D1*
X10316D2*
X13684D1*
X17089D2*
X17809D1*
X19988D2*
X31360D1*
X32839D2*
X34350D1*
X-17852Y74868D2*
X8254D1*
X10668D2*
X13332D1*
X17089D2*
X17809D1*
X19988D2*
X31360D1*
X32839D2*
X34350D1*
X-17852Y74622D2*
X8028D1*
X10894D2*
X13106D1*
X17089D2*
X17809D1*
X19988D2*
X31360D1*
X32839D2*
X34350D1*
X-17852Y74375D2*
X7871D1*
X11050D2*
X12950D1*
X16129D2*
X31360D1*
X32839D2*
X34350D1*
X-17852Y74128D2*
X7766D1*
X11156D2*
X12844D1*
X16234D2*
X31360D1*
X32839D2*
X34350D1*
X-17852Y73882D2*
X7700D1*
X11218D2*
X12782D1*
X16300D2*
X31360D1*
X32839D2*
X34350D1*
X-17852Y73635D2*
X7672D1*
X11250D2*
X12750D1*
X16328D2*
X31360D1*
X32839D2*
X34350D1*
X-17852Y73388D2*
X7680D1*
X11242D2*
X12758D1*
X16320D2*
X31360D1*
X32839D2*
X34350D1*
X-17852Y73142D2*
X7719D1*
X11199D2*
X12801D1*
X16281D2*
X31360D1*
X32839D2*
X34350D1*
X-17852Y72895D2*
X-136D1*
X1136D2*
X7801D1*
X11121D2*
X12879D1*
X16199D2*
X31360D1*
X32839D2*
X34350D1*
X-17852Y72648D2*
X-550D1*
X1550D2*
X7922D1*
X10996D2*
X13004D1*
X16078D2*
X31360D1*
X32839D2*
X34350D1*
X-17852Y72402D2*
X-793D1*
X1793D2*
X8102D1*
X10816D2*
X13184D1*
X15898D2*
X31360D1*
X32839D2*
X34350D1*
X-17852Y72155D2*
X-953D1*
X1953D2*
X8364D1*
X10554D2*
X13446D1*
X15636D2*
X31360D1*
X32839D2*
X34350D1*
X-17852Y71908D2*
X-1058D1*
X2058D2*
X8809D1*
X10109D2*
X13891D1*
X15191D2*
X31360D1*
X32839D2*
X34350D1*
X-17852Y71662D2*
X-1117D1*
X2117D2*
X31360D1*
X32839D2*
X34350D1*
X-17852Y71415D2*
X-1140D1*
X2140D2*
X31360D1*
X32839D2*
X34350D1*
X-17852Y71168D2*
X-1125D1*
X2125D2*
X31360D1*
X32839D2*
X34350D1*
X-17852Y70922D2*
X-1066D1*
X2066D2*
X31360D1*
X32839D2*
X34350D1*
X-17852Y70675D2*
X-968D1*
X1968D2*
X31360D1*
X32839D2*
X34350D1*
X-17852Y70428D2*
X-816D1*
X1816D2*
X19661D1*
X22140D2*
X25227D1*
X26570D2*
X31360D1*
X32839D2*
X34350D1*
X-17852Y70182D2*
X-586D1*
X1586D2*
X7672D1*
X11250D2*
X14055D1*
X15027D2*
X19661D1*
X22140D2*
X24946D1*
X26855D2*
X31360D1*
X32839D2*
X34350D1*
X-17852Y69935D2*
X-203D1*
X1203D2*
X7672D1*
X11250D2*
X13520D1*
X15562D2*
X19661D1*
X22140D2*
X24786D1*
X27015D2*
X31360D1*
X32839D2*
X34350D1*
X-17852Y69688D2*
X7672D1*
X11250D2*
X13231D1*
X15851D2*
X19661D1*
X22140D2*
X24696D1*
X27105D2*
X31360D1*
X32839D2*
X34350D1*
X-17852Y69442D2*
X7672D1*
X11250D2*
X13036D1*
X16043D2*
X19661D1*
X22140D2*
X24661D1*
X27140D2*
X31360D1*
X32839D2*
X34350D1*
X-17852Y69195D2*
X7672D1*
X11250D2*
X12903D1*
X16179D2*
X19661D1*
X22140D2*
X24676D1*
X27121D2*
X31360D1*
X32839D2*
X34350D1*
X-17852Y68948D2*
X7672D1*
X11250D2*
X12813D1*
X16265D2*
X19661D1*
X22140D2*
X24746D1*
X27054D2*
X31360D1*
X32839D2*
X34350D1*
X-17852Y68702D2*
X7672D1*
X11250D2*
X12766D1*
X16316D2*
X19661D1*
X22140D2*
X24879D1*
X26918D2*
X31360D1*
X32839D2*
X34350D1*
X-17852Y68455D2*
X7672D1*
X11250D2*
X12750D1*
X16328D2*
X19661D1*
X22140D2*
X25114D1*
X26687D2*
X31360D1*
X32839D2*
X34350D1*
X-17852Y68208D2*
X7672D1*
X11250D2*
X12770D1*
X16308D2*
X19661D1*
X22140D2*
X25641D1*
X26160D2*
X31360D1*
X32839D2*
X34350D1*
X-17852Y67962D2*
X63D1*
X937D2*
X7672D1*
X11250D2*
X12829D1*
X16254D2*
X31360D1*
X32839D2*
X34350D1*
X-17852Y67715D2*
X-461D1*
X1461D2*
X7672D1*
X11250D2*
X12922D1*
X16156D2*
X31360D1*
X32839D2*
X34350D1*
X-17852Y67468D2*
X-734D1*
X1734D2*
X7672D1*
X11250D2*
X13067D1*
X16011D2*
X31360D1*
X32839D2*
X34350D1*
X-17852Y67222D2*
X-914D1*
X1914D2*
X7672D1*
X11250D2*
X13278D1*
X15804D2*
X31360D1*
X32839D2*
X34350D1*
X-17852Y66975D2*
X-1035D1*
X2035D2*
X7672D1*
X11250D2*
X13590D1*
X15488D2*
X31360D1*
X32839D2*
X34350D1*
X-17852Y66728D2*
X-1105D1*
X2105D2*
X7672D1*
X11250D2*
X14289D1*
X14793D2*
X31360D1*
X32839D2*
X34350D1*
X-17852Y66482D2*
X-1136D1*
X2136D2*
X8610D1*
X10707D2*
X29387D1*
X31015D2*
X31286D1*
X32914D2*
X34350D1*
X-17852Y66235D2*
X-1132D1*
X2132D2*
X8610D1*
X10953D2*
X29387D1*
X31015D2*
X31286D1*
X32914D2*
X34350D1*
X-17852Y65988D2*
X-1086D1*
X2086D2*
X8633D1*
X11203D2*
X29387D1*
X31015D2*
X31286D1*
X32914D2*
X34350D1*
X-17852Y65742D2*
X-1000D1*
X2000D2*
X8727D1*
X11449D2*
X29387D1*
X31015D2*
X31286D1*
X32914D2*
X34350D1*
X-17852Y65495D2*
X-863D1*
X1863D2*
X8914D1*
X11695D2*
X13059D1*
X14941D2*
X15961D1*
X17839D2*
X29387D1*
X31015D2*
X31286D1*
X32914D2*
X34350D1*
X-17852Y65248D2*
X-656D1*
X1656D2*
X9161D1*
X14941D2*
X15961D1*
X17839D2*
X29387D1*
X31015D2*
X31286D1*
X32914D2*
X34350D1*
X-17852Y65002D2*
X-332D1*
X1332D2*
X9411D1*
X14941D2*
X15961D1*
X23312D2*
X29387D1*
X31015D2*
X31286D1*
X32914D2*
X34350D1*
X-17852Y64755D2*
X9657D1*
X14941D2*
X15961D1*
X23582D2*
X29387D1*
X31015D2*
X31286D1*
X32914D2*
X34350D1*
X-17852Y64508D2*
X5625D1*
X6375D2*
X9903D1*
X14984D2*
X15961D1*
X23828D2*
X34350D1*
X-17852Y64262D2*
X4711D1*
X7289D2*
X10149D1*
X14980D2*
X15961D1*
X24074D2*
X30336D1*
X31964D2*
X34350D1*
X-17852Y64015D2*
X4258D1*
X7742D2*
X10395D1*
X14941D2*
X15961D1*
X24320D2*
X30336D1*
X31964D2*
X34350D1*
X-17852Y63768D2*
X3930D1*
X8070D2*
X10641D1*
X14941D2*
X15961D1*
X24566D2*
X29532D1*
X31964D2*
X34350D1*
X-4450Y63522D2*
X3676D1*
X8324D2*
X10977D1*
X14941D2*
X15961D1*
X17839D2*
X22743D1*
X24812D2*
X29286D1*
X31964D2*
X34350D1*
X-4172Y63275D2*
X3473D1*
X8527D2*
X13059D1*
X14941D2*
X15961D1*
X17839D2*
X22989D1*
X25062D2*
X29039D1*
X31964D2*
X34350D1*
X-3926Y63028D2*
X3305D1*
X8695D2*
X23235D1*
X25308D2*
X28793D1*
X31964D2*
X34350D1*
X-3680Y62782D2*
X3168D1*
X8832D2*
X23481D1*
X25480D2*
X28547D1*
X31964D2*
X34350D1*
X-3434Y62535D2*
X3059D1*
X8941D2*
X23731D1*
X25539D2*
X28301D1*
X31964D2*
X34350D1*
X-3188Y62288D2*
X2977D1*
X9023D2*
X23977D1*
X25539D2*
X28051D1*
X30125D2*
X34350D1*
X-2942Y62042D2*
X2914D1*
X9086D2*
X24059D1*
X25539D2*
X27805D1*
X29879D2*
X34350D1*
X-2692Y61795D2*
X2871D1*
X9129D2*
X24059D1*
X25539D2*
X27559D1*
X29632D2*
X34350D1*
X-2446Y61548D2*
X2852D1*
X9148D2*
X24059D1*
X25539D2*
X27313D1*
X29382D2*
X34350D1*
X-2200Y61302D2*
X2848D1*
X9152D2*
X24059D1*
X25539D2*
X27067D1*
X29136D2*
X34350D1*
X-1954Y61055D2*
X2868D1*
X9132D2*
X24059D1*
X25539D2*
X26821D1*
X28890D2*
X34350D1*
X-1707Y60808D2*
X2903D1*
X9097D2*
X18110D1*
X19093D2*
X24059D1*
X25539D2*
X26571D1*
X28644D2*
X34350D1*
X-1461Y60562D2*
X2961D1*
X9039D2*
X17528D1*
X19671D2*
X24059D1*
X25539D2*
X26411D1*
X28398D2*
X34350D1*
X-1215Y60315D2*
X3039D1*
X8961D2*
X17211D1*
X19988D2*
X24059D1*
X25539D2*
X26360D1*
X28152D2*
X34350D1*
X-965Y60068D2*
X3145D1*
X8855D2*
X16996D1*
X20203D2*
X24059D1*
X25539D2*
X26360D1*
X27906D2*
X34350D1*
X-719Y59822D2*
X3274D1*
X8726D2*
X16840D1*
X20359D2*
X24059D1*
X25539D2*
X26360D1*
X27839D2*
X34350D1*
X-473Y59575D2*
X3434D1*
X8566D2*
X16731D1*
X20468D2*
X24059D1*
X25539D2*
X26360D1*
X27839D2*
X34350D1*
X-227Y59328D2*
X3633D1*
X8367D2*
X16657D1*
X20543D2*
X24059D1*
X25539D2*
X26360D1*
X27839D2*
X34350D1*
X19Y59082D2*
X3875D1*
X8125D2*
X16618D1*
X20582D2*
X24059D1*
X25539D2*
X26360D1*
X27839D2*
X34350D1*
X265Y58835D2*
X4184D1*
X7816D2*
X16610D1*
X20589D2*
X24059D1*
X25539D2*
X26360D1*
X27839D2*
X34350D1*
X511Y58588D2*
X4606D1*
X7394D2*
X16637D1*
X20566D2*
X24059D1*
X25539D2*
X26360D1*
X27839D2*
X34350D1*
X761Y58342D2*
X5317D1*
X6683D2*
X16692D1*
X20507D2*
X24059D1*
X25539D2*
X26360D1*
X27839D2*
X34350D1*
X1007Y58095D2*
X16782D1*
X20418D2*
X24059D1*
X25539D2*
X26360D1*
X27839D2*
X34350D1*
X1254Y57848D2*
X16914D1*
X20285D2*
X24059D1*
X25539D2*
X26360D1*
X27839D2*
X34350D1*
X1500Y57602D2*
X17102D1*
X20101D2*
X24059D1*
X25539D2*
X26360D1*
X27839D2*
X34350D1*
X1660Y86815D2*
X3965D1*
Y84814D1*
X4187Y84815D1*
X4185Y85065D1*
X4115D1*
Y87335D1*
X6556D1*
X6555Y88085D1*
X6505Y88089D1*
X6390Y88085D1*
X5235D1*
X5234Y89394D1*
X5111Y89176D1*
X4954Y88982D1*
X4766Y88818D1*
X4552Y88688D1*
X4320Y88597D1*
X4076Y88546D1*
X3826Y88537D1*
X3579Y88571D1*
X3341Y88646D1*
X3119Y88761D1*
X2920Y88911D1*
X2749Y89093D1*
X2612Y89302D1*
X2512Y89531D1*
X2453Y89773D1*
X2435Y90023D1*
X2460Y90271D1*
X2527Y90512D1*
X2634Y90737D1*
X2737Y90889D1*
X2735Y92615D1*
Y94315D1*
X5065D1*
Y92213D1*
X5600Y92215D1*
X5724Y92204D1*
X5845Y92172D1*
X5958Y92119D1*
X6106Y92006D1*
X6506Y91606D1*
X6586Y91510D1*
X6648Y91402D1*
X6691Y91284D1*
X6715Y91100D1*
Y90713D1*
X6765Y90711D1*
X6880Y90715D1*
X8035Y90711D1*
X8150Y90715D1*
X9096D1*
X9095Y91410D1*
X9106Y91534D1*
X9138Y91655D1*
X9191Y91768D1*
X9304Y91916D1*
X9794Y92406D1*
X9890Y92486D1*
X9998Y92548D1*
X10116Y92591D1*
X10300Y92615D1*
X12587Y92616D1*
X12406Y92783D1*
X11844Y93344D1*
X11764Y93440D1*
X11702Y93548D1*
X11659Y93666D1*
X11635Y93850D1*
Y93987D1*
X11585Y93989D1*
X11470Y93985D1*
X10315Y93989D1*
X10200Y93985D1*
X9376D1*
X9375Y93915D1*
X7705Y93919D1*
X7605Y93915D1*
X6435D1*
Y93989D1*
X6315Y93985D1*
X5235D1*
Y96615D1*
X6436D1*
X6435Y96685D1*
X8105Y96681D1*
X8205Y96685D1*
X9092D1*
X9095Y97195D1*
X8705Y97584D1*
X-2707Y97585D1*
X-3083Y97206D1*
X-3085Y96816D1*
X-2054Y96815D1*
X-2055Y96885D1*
X-385D1*
Y96811D1*
X-265Y96815D1*
X486D1*
X485Y96885D1*
X2155D1*
Y94115D1*
X485D1*
Y94189D1*
X365Y94185D1*
X-386D1*
X-385Y94115D1*
X-2055D1*
Y94189D1*
X-2175Y94185D1*
X-4525Y94189D1*
X-4640Y94185D1*
X-5795Y94189D1*
X-5910Y94185D1*
X-6906D1*
X-7197Y93892D1*
X-7235Y93840D1*
Y91885D1*
X-9565D1*
Y95511D1*
X-9688Y95702D1*
X-9788Y95931D1*
X-9847Y96173D1*
X-9865Y96423D1*
X-9840Y96671D1*
X-9773Y96912D1*
X-9666Y97137D1*
X-9522Y97342D1*
X-9346Y97518D1*
X-9143Y97663D1*
X-8917Y97771D1*
X-8869Y97787D1*
X-10198Y97785D1*
X-10195Y97465D1*
Y95335D1*
X-11375D1*
Y92275D1*
X-13316D1*
X-15137Y90452D1*
X-15135Y89985D1*
X-17665Y89989D1*
X-17910Y89985D1*
X-18219D1*
X-18341Y89852D1*
X-18444Y89780D1*
X-18557Y89728D1*
X-18677Y89696D1*
X-18800Y89685D1*
X-27532D1*
X-27535Y88685D1*
X-31465D1*
Y92115D1*
X-27535D1*
Y91111D1*
X-27125Y91115D1*
X-24465D1*
Y91915D1*
X-21935D1*
Y91114D1*
X-20063Y91115D1*
X-20065Y91815D1*
X-17535Y91811D1*
X-17290Y91815D1*
X-15794D1*
X-14512Y93099D1*
X-14515Y94550D1*
Y95335D1*
X-14865D1*
Y98065D1*
X-14463D1*
X-14384Y98213D1*
X-14217Y98394D1*
X-13927Y98684D1*
X-19474Y98685D1*
X-19475Y98173D1*
X-19394Y98106D1*
X-19121Y97832D1*
X-18829Y97865D1*
X-18579Y97848D1*
X-18337Y97790D1*
X-18107Y97691D1*
X-17898Y97555D1*
X-17715Y97385D1*
X-17564Y97186D1*
X-17448Y96965D1*
X-17372Y96727D1*
X-17337Y96480D1*
X-17340Y96275D1*
X-17383Y96029D1*
X-17466Y95794D1*
X-17589Y95576D1*
X-17746Y95382D1*
X-17934Y95218D1*
X-18083Y95124D1*
X-18085Y94716D1*
X-17535Y94715D1*
X-15135D1*
Y92885D1*
X-17665Y92889D1*
X-17910Y92885D1*
X-20065D1*
Y94178D1*
X-20725Y94175D1*
X-21932D1*
X-21935Y92985D1*
X-24465D1*
Y94317D1*
X-24785Y94315D1*
Y95475D1*
X-24825Y95465D1*
Y94385D1*
X-26055D1*
Y95475D1*
X-26525D1*
Y99325D1*
X-23287D1*
X-22706Y99906D1*
X-22610Y99986D1*
X-22502Y100048D1*
X-22384Y100091D1*
X-22200Y100115D1*
X9600D1*
X9724Y100104D1*
X9845Y100072D1*
X9958Y100019D1*
X10106Y99906D1*
X11586Y98426D1*
X11666Y98330D1*
X11728Y98222D1*
X11771Y98104D1*
X11795Y97920D1*
Y96611D1*
X11845D1*
X11960Y96615D1*
X13115Y96611D1*
X13230Y96615D1*
X14385D1*
Y96017D1*
X16500Y96015D1*
X16624Y96004D1*
X16745Y95972D1*
X16858Y95919D1*
X17006Y95806D1*
X18036Y94775D1*
X18030Y94868D1*
X18037Y94993D1*
X18060Y95116D1*
X18097Y95235D1*
X18148Y95349D1*
X18212Y95456D1*
X18289Y95555D1*
X18377Y95643D1*
X18475Y95721D1*
X18582Y95785D1*
X18696Y95837D1*
X18815Y95874D1*
X18938Y95897D1*
X19063Y95905D1*
X19187Y95898D1*
X19310Y95876D1*
X19430Y95839D1*
X19544Y95788D1*
X19651Y95723D1*
X19749Y95646D1*
X19838Y95558D1*
X19915Y95460D1*
X19980Y95354D1*
X20032Y95240D1*
X20069Y95121D1*
X20092Y94998D1*
X20100Y94870D1*
X20092Y94745D1*
X20070Y94622D1*
X20033Y94503D1*
X19990Y94407D1*
X20133Y94342D1*
X20175Y94313D1*
X22325Y94315D1*
X24024D1*
X24101Y94442D1*
X24262Y94634D1*
X24453Y94795D1*
X24668Y94922D1*
X24901Y95010D1*
X25147Y95057D1*
X25396Y95062D1*
X25643Y95024D1*
X25880Y94945D1*
X26100Y94827D1*
X26297Y94674D1*
X26465Y94489D1*
X26599Y94278D1*
X26695Y94048D1*
X26751Y93804D1*
X26765Y93600D1*
X26744Y93351D1*
X26681Y93110D1*
X26577Y92882D1*
X26437Y92676D1*
X26263Y92496D1*
X26062Y92349D1*
X25838Y92237D1*
X25599Y92166D1*
X25351Y92136D1*
X25102Y92148D1*
X24858Y92203D1*
X24627Y92299D1*
X24590Y92320D1*
X25306Y91606D1*
X25386Y91510D1*
X25448Y91402D1*
X25491Y91284D1*
X25515Y91100D1*
Y88900D1*
X25504Y88776D1*
X25472Y88655D1*
X25419Y88542D1*
X25306Y88394D1*
X24406Y87494D1*
X24310Y87414D1*
X24202Y87352D1*
X24084Y87309D1*
X23900Y87285D1*
X23826D1*
X29706Y81406D1*
X29786Y81310D1*
X29848Y81202D1*
X29891Y81084D1*
X29915Y80900D1*
Y80466D1*
X30415Y80465D1*
Y78635D1*
X27885D1*
Y80465D1*
X28483D1*
X28485Y80604D1*
X23935Y85154D1*
X23995Y84998D1*
X24051Y84754D1*
X24065Y84550D1*
X24044Y84301D1*
X23981Y84060D1*
X23877Y83832D1*
X23737Y83626D1*
X23563Y83446D1*
X23362Y83299D1*
X23138Y83187D1*
X22899Y83116D1*
X22651Y83086D1*
X22402Y83098D1*
X22158Y83153D1*
X21927Y83249D1*
X21716Y83382D1*
X21531Y83549D1*
X21498Y83587D1*
X20612Y83585D1*
X20615Y83035D1*
X19213D1*
X19215Y81350D1*
Y80268D1*
X19465Y80265D1*
Y77261D1*
X19839Y77265D1*
X19835Y78010D1*
Y80265D1*
X21765D1*
Y79964D1*
X21868Y80022D1*
X22101Y80110D1*
X22347Y80157D1*
X22596Y80162D1*
X22843Y80124D1*
X23080Y80045D1*
X23300Y79927D1*
X23497Y79774D1*
X23665Y79589D1*
X23799Y79378D1*
X23895Y79148D1*
X23951Y78904D1*
X23965Y78700D1*
X23944Y78451D1*
X23881Y78210D1*
X23777Y77982D1*
X23637Y77776D1*
X23463Y77596D1*
X23262Y77449D1*
X23038Y77337D1*
X22799Y77266D1*
X22551Y77236D1*
X22302Y77248D1*
X22058Y77303D1*
X21827Y77399D1*
X21763Y77435D1*
X21765Y77135D1*
X19964D1*
X19965Y74535D1*
X17835D1*
Y77133D1*
X17535Y77135D1*
Y80265D1*
X17789D1*
X17785Y80825D1*
Y83032D1*
X16990Y83035D1*
X16385D1*
Y86165D1*
X20615D1*
Y85513D1*
X21496Y85515D1*
X21654Y85668D1*
X21857Y85813D1*
X22083Y85921D1*
X22323Y85989D1*
X22571Y86015D1*
X22821Y85998D1*
X23063Y85940D1*
X23205Y85883D1*
X22902Y86187D1*
X16200Y86185D1*
X13700D1*
X13576Y86196D1*
X13455Y86228D1*
X13342Y86281D1*
X13194Y86394D1*
X12866Y86723D1*
X12861Y85085D1*
X12865Y85065D1*
Y83385D1*
X10535D1*
Y85386D1*
X10415Y85385D1*
Y85135D1*
X7985D1*
Y87265D1*
X8223D1*
X7988Y87506D1*
X7985Y86400D1*
Y85138D1*
X8665Y85135D1*
X10485D1*
Y82865D1*
X7915D1*
Y84564D1*
X7817Y84410D1*
X7006Y83594D1*
X6910Y83514D1*
X6802Y83452D1*
X6621Y83395D1*
X6615Y83315D1*
Y82935D1*
X4185D1*
Y83384D1*
X3968Y83385D1*
X3965Y83085D1*
X1635D1*
X1639Y85115D1*
X1635Y85135D1*
Y86815D1*
X1660D1*
X10660Y87115D2*
X12476D1*
X11844Y87744D1*
X11764Y87840D1*
X11677Y88009D1*
X11665Y88015D1*
X10245D1*
Y88089D1*
X9825Y88085D1*
X9423D1*
X9706Y87806D1*
X9786Y87710D1*
X9848Y87602D1*
X9891Y87484D1*
X9915Y87300D1*
Y87265D1*
X10415D1*
Y86816D1*
X10538Y86815D1*
X10535Y87115D1*
X10660D1*
X19810Y70615D2*
X22115D1*
Y68185D1*
X19685D1*
Y70615D1*
X19810D1*
X27115Y69375D2*
X27099Y69201D1*
X27058Y69031D1*
X26993Y68869D1*
X26905Y68717D1*
X26797Y68580D1*
X26670Y68460D1*
X26527Y68359D1*
X26371Y68280D1*
X26205Y68224D1*
X26033Y68192D1*
X25859Y68186D1*
X25685Y68204D1*
X25515Y68248D1*
X25354Y68315D1*
X25204Y68404D1*
X25068Y68515D1*
X24950Y68643D1*
X24851Y68787D1*
X24774Y68944D1*
X24720Y69111D1*
X24691Y69283D1*
X24686Y69458D1*
X24707Y69632D1*
X24753Y69800D1*
X24822Y69961D1*
X24914Y70110D1*
X25026Y70244D1*
X25156Y70361D1*
X25302Y70457D1*
X25460Y70532D1*
X25627Y70584D1*
X25800Y70611D1*
X25974Y70613D1*
X26148Y70589D1*
X26316Y70542D1*
X26475Y70470D1*
X26623Y70376D1*
X26756Y70263D1*
X26871Y70131D1*
X26966Y69984D1*
X27038Y69825D1*
X27087Y69657D1*
X27112Y69484D1*
X27115Y69375D1*
X14960Y77265D2*
X15236D1*
X15235Y80265D1*
X17165D1*
Y77135D1*
X17064D1*
X17065Y74535D1*
X16010D1*
X16109Y74367D1*
X16190Y74184D1*
X16250Y73994D1*
X16289Y73798D1*
X16305Y73598D1*
X16296Y73384D1*
X16265Y73186D1*
X16212Y72994D1*
X16138Y72808D1*
X16042Y72632D1*
X15928Y72468D1*
X15796Y72318D1*
X15648Y72184D1*
X15485Y72068D1*
X15311Y71971D1*
X15126Y71894D1*
X14934Y71838D1*
X14737Y71805D1*
X14537Y71794D1*
X14338Y71805D1*
X14141Y71839D1*
X13949Y71895D1*
X13765Y71973D1*
X13591Y72071D1*
X13428Y72188D1*
X13280Y72322D1*
X13149Y72472D1*
X13035Y72637D1*
X12940Y72813D1*
X12866Y72998D1*
X12814Y73191D1*
X12783Y73389D1*
X12775Y73589D1*
X12790Y73788D1*
X12827Y73984D1*
X12886Y74175D1*
X12967Y74358D1*
X13067Y74531D1*
X13187Y74691D1*
X13323Y74837D1*
X13476Y74967D1*
X13642Y75078D1*
X13819Y75170D1*
X14006Y75241D1*
X14200Y75290D1*
X14398Y75318D1*
X14598Y75323D1*
X14797Y75305D1*
X14936Y75279D1*
X14935Y77265D1*
X14960D1*
X20565Y58875D2*
X20549Y58651D1*
X20508Y58430D1*
X20442Y58215D1*
X20351Y58009D1*
X20238Y57815D1*
X20103Y57634D1*
X20004Y57525D1*
X24082D1*
X24085Y58600D1*
Y62205D1*
X22601Y63688D1*
X21150Y63685D1*
X17818D1*
X17815Y63135D1*
X15985D1*
Y65665D1*
X17815D1*
Y65114D1*
X22900Y65115D1*
X23024Y65104D1*
X23145Y65072D1*
X23258Y65019D1*
X23406Y64906D1*
X25306Y63006D1*
X25386Y62910D1*
X25448Y62802D1*
X25491Y62684D1*
X25515Y62500D1*
Y57527D1*
X26387Y57525D1*
X26385Y60300D1*
X26396Y60424D1*
X26428Y60545D1*
X26481Y60658D1*
X26594Y60806D1*
X29594Y63806D1*
X29690Y63886D1*
X29798Y63948D1*
X29916Y63991D1*
X30100Y64015D1*
X30362D1*
X30360Y64290D1*
X31940D1*
Y62310D1*
X30360D1*
Y62548D1*
X27813Y60002D1*
X27815Y57523D1*
X29500Y57525D1*
X34375D1*
X34371Y94558D1*
X34270Y94329D1*
X34155Y94107D1*
X34024Y93894D1*
X33878Y93691D1*
X33719Y93498D1*
X33548Y93317D1*
X33364Y93147D1*
X33169Y92991D1*
X32963Y92849D1*
X32748Y92721D1*
X32525Y92608D1*
X32295Y92511D1*
X32059Y92430D1*
X31817Y92365D1*
X31572Y92317D1*
X31324Y92286D1*
X31074Y92272D1*
X30824Y92276D1*
X30575Y92297D1*
X30328Y92334D1*
X30084Y92389D1*
X29845Y92460D1*
X29611Y92548D1*
X29383Y92652D1*
X29164Y92771D1*
X28952Y92905D1*
X28751Y93053D1*
X28560Y93214D1*
X28381Y93389D1*
X28215Y93575D1*
X28061Y93772D1*
X27922Y93980D1*
X27797Y94196D1*
X27687Y94421D1*
X27593Y94652D1*
X27515Y94890D1*
X27454Y95132D1*
X27409Y95378D1*
X27382Y95627D1*
X27372Y95876D1*
X27379Y96126D1*
X27403Y96375D1*
X27444Y96621D1*
X27502Y96865D1*
X27577Y97103D1*
X27668Y97336D1*
X27775Y97562D1*
X27897Y97780D1*
X28033Y97989D1*
X28184Y98188D1*
X28349Y98377D1*
X28525Y98554D1*
X28714Y98718D1*
X28913Y98868D1*
X29123Y99005D1*
X29341Y99127D1*
X29567Y99233D1*
X29800Y99324D1*
X30039Y99399D1*
X30282Y99457D1*
X30528Y99498D1*
X30777Y99521D1*
X31027Y99528D1*
X31277Y99518D1*
X31525Y99490D1*
X31771Y99445D1*
X32013Y99384D1*
X32251Y99306D1*
X32482Y99212D1*
X32707Y99102D1*
X32923Y98977D1*
X33130Y98837D1*
X33328Y98683D1*
X33514Y98517D1*
X33688Y98337D1*
X33849Y98146D1*
X33997Y97945D1*
X34131Y97734D1*
X34250Y97514D1*
X34374Y97232D1*
X34375Y100275D1*
X-28285D1*
X-28078Y100102D1*
X-27898Y99928D1*
X-27730Y99743D1*
X-27575Y99547D1*
X-27434Y99341D1*
X-27308Y99125D1*
X-27197Y98901D1*
X-27101Y98670D1*
X-27022Y98433D1*
X-26959Y98191D1*
X-26913Y97945D1*
X-26884Y97697D1*
X-26872Y97400D1*
X-26880Y97150D1*
X-26906Y96902D1*
X-26949Y96655D1*
X-27009Y96413D1*
X-27085Y96175D1*
X-27177Y95942D1*
X-27286Y95717D1*
X-27409Y95500D1*
X-27547Y95291D1*
X-27699Y95093D1*
X-27865Y94906D1*
X-28043Y94730D1*
X-28232Y94567D1*
X-28433Y94418D1*
X-28643Y94283D1*
X-28862Y94162D1*
X-29089Y94057D1*
X-29322Y93968D1*
X-29561Y93895D1*
X-29805Y93839D1*
X-30052Y93799D1*
X-30301Y93777D1*
X-30551Y93772D1*
X-30800Y93784D1*
X-31049Y93813D1*
X-31294Y93860D1*
X-31536Y93923D1*
X-31773Y94002D1*
X-32004Y94098D1*
X-32228Y94209D1*
X-32443Y94336D1*
X-32650Y94477D1*
X-32846Y94632D1*
X-33031Y94800D1*
X-33204Y94980D1*
X-33364Y95172D1*
X-33510Y95375D1*
X-33643Y95587D1*
X-33760Y95807D1*
X-33862Y96036D1*
X-33948Y96270D1*
X-34018Y96510D1*
X-34070Y96755D1*
X-34106Y97002D1*
X-34125Y97251D1*
X-34127Y97501D1*
X-34111Y97751D1*
X-34079Y97999D1*
X-34029Y98243D1*
X-33962Y98484D1*
X-33880Y98720D1*
X-33781Y98950D1*
X-33666Y99172D1*
X-33537Y99386D1*
X-33393Y99590D1*
X-33235Y99784D1*
X-33065Y99967D1*
X-32882Y100137D1*
X-32715Y100273D1*
X-34375Y100275D1*
Y77525D1*
X-18000D1*
X-17895Y77464D1*
X-17875Y77400D1*
Y63525D1*
X-4497Y63523D1*
X-4412Y63488D1*
X1552Y57525D1*
X17196D1*
X17048Y57694D1*
X16921Y57879D1*
X16815Y58078D1*
X16733Y58287D1*
X16675Y58504D1*
X16643Y58727D1*
X16636Y58952D1*
X16654Y59176D1*
X16699Y59396D1*
X16768Y59610D1*
X16861Y59815D1*
X16977Y60008D1*
X17114Y60186D1*
X17271Y60347D1*
X17445Y60490D1*
X17634Y60611D1*
X17836Y60710D1*
X18048Y60786D1*
X18267Y60837D1*
X18490Y60862D1*
X18715D1*
X18938Y60836D1*
X19157Y60784D1*
X19369Y60708D1*
X19571Y60609D1*
X19759Y60486D1*
X19933Y60344D1*
X20089Y60182D1*
X20226Y60003D1*
X20341Y59810D1*
X20434Y59605D1*
X20503Y59391D1*
X20546Y59171D1*
X20564Y58946D1*
X20565Y58875D1*
X-19890Y85015D2*
X-17614D1*
X-17615Y85365D1*
X-15785D1*
Y82835D1*
X-17615D1*
Y83183D1*
X-19835Y83185D1*
X-20015D1*
Y85015D1*
X-19890D1*
X-23190D2*
X-23085D1*
X-23224Y85195D1*
X-23343Y85414D1*
X-23423Y85651D1*
X-23461Y85898D1*
X-23458Y86147D1*
X-23411Y86393D1*
X-23324Y86627D1*
X-23199Y86842D1*
X-23038Y87034D1*
X-22847Y87195D1*
X-22632Y87322D1*
X-22399Y87410D1*
X-22153Y87457D1*
X-21904Y87462D1*
X-21657Y87424D1*
X-21420Y87345D1*
X-21200Y87227D1*
X-21003Y87074D1*
X-20835Y86889D1*
X-20701Y86678D1*
X-20605Y86448D1*
X-20549Y86204D1*
X-20535Y86000D1*
X-20556Y85751D1*
X-20619Y85510D1*
X-20723Y85282D1*
X-20863Y85076D1*
X-20918Y85014D1*
X-20885Y85015D1*
Y83185D1*
X-23315D1*
Y85015D1*
X-23190D1*
X7820Y70243D2*
X11225D1*
Y66714D1*
X10565D1*
Y66600D1*
X11799Y65366D1*
X13084Y65365D1*
X13085Y65665D1*
X14915D1*
Y64708D1*
X14955Y64540D1*
X14965Y64416D1*
X14959Y64291D1*
X14914Y64097D1*
X14915Y63135D1*
X13085D1*
Y63436D1*
X11400Y63435D1*
X11275Y63443D1*
X11153Y63467D1*
X11034Y63507D1*
X10922Y63562D1*
X10818Y63630D1*
X10629Y63806D1*
X8918Y65518D1*
X8835Y65611D1*
X8766Y65715D1*
X8710Y65827D1*
X8669Y65945D1*
X8644Y66068D1*
X8635Y66325D1*
Y66712D1*
X7695Y66714D1*
Y70243D1*
X7820D1*
X16301Y68354D2*
X16265Y68106D1*
X16195Y67866D1*
X16093Y67639D1*
X15958Y67428D1*
X15796Y67238D1*
X15608Y67074D1*
X15399Y66937D1*
X15173Y66831D1*
X14934Y66758D1*
X14687Y66720D1*
X14438Y66716D1*
X14190Y66749D1*
X13949Y66815D1*
X13720Y66915D1*
X13508Y67047D1*
X13316Y67207D1*
X13149Y67392D1*
X13009Y67600D1*
X12901Y67825D1*
X12825Y68063D1*
X12783Y68309D1*
X12777Y68559D1*
X12806Y68807D1*
X12869Y69048D1*
X12967Y69278D1*
X13095Y69492D1*
X13253Y69686D1*
X13436Y69856D1*
X13642Y69998D1*
X13865Y70109D1*
X14102Y70188D1*
X14348Y70233D1*
X14598Y70243D1*
X14846Y70217D1*
X15088Y70156D1*
X15320Y70062D1*
X15535Y69936D1*
X15731Y69781D1*
X15903Y69600D1*
X16048Y69396D1*
X16162Y69174D1*
X16244Y68938D1*
X16292Y68693D1*
X16305Y68478D1*
X16301Y68354D1*
X11221Y73434D2*
X11185Y73186D1*
X11115Y72946D1*
X11013Y72719D1*
X10878Y72508D1*
X10716Y72318D1*
X10528Y72154D1*
X10319Y72017D1*
X10093Y71911D1*
X9854Y71838D1*
X9607Y71800D1*
X9358Y71796D1*
X9110Y71829D1*
X8869Y71895D1*
X8640Y71995D1*
X8428Y72127D1*
X8236Y72287D1*
X8069Y72472D1*
X7929Y72680D1*
X7821Y72905D1*
X7745Y73143D1*
X7703Y73389D1*
X7697Y73639D1*
X7726Y73887D1*
X7789Y74128D1*
X7887Y74358D1*
X8015Y74572D1*
X8173Y74766D1*
X8356Y74936D1*
X8562Y75078D1*
X8785Y75189D1*
X9022Y75268D1*
X9268Y75313D1*
X9518Y75323D1*
X9766Y75297D1*
X10008Y75236D1*
X10240Y75142D1*
X10455Y75016D1*
X10651Y74861D1*
X10823Y74680D1*
X10968Y74476D1*
X11082Y74254D1*
X11164Y74018D1*
X11212Y73773D1*
X11225Y73558D1*
X11221Y73434D1*
X-14740Y88765D2*
X-13627D1*
X-13625Y90425D1*
X-11375D1*
Y88765D1*
X-10195D1*
Y88113D1*
X-9780Y88115D1*
X-9699Y88242D1*
X-9538Y88434D1*
X-9347Y88595D1*
X-9132Y88722D1*
X-8899Y88810D1*
X-8653Y88857D1*
X-8404Y88862D1*
X-8157Y88824D1*
X-7920Y88745D1*
X-7700Y88627D1*
X-7503Y88474D1*
X-7335Y88289D1*
X-7201Y88078D1*
X-7105Y87848D1*
X-7049Y87604D1*
X-7035Y87400D1*
X-7056Y87151D1*
X-7119Y86910D1*
X-7223Y86682D1*
X-7363Y86476D1*
X-7537Y86296D1*
X-7738Y86149D1*
X-7962Y86037D1*
X-8201Y85966D1*
X-8449Y85936D1*
X-8698Y85948D1*
X-8942Y86003D1*
X-9173Y86099D1*
X-9384Y86232D1*
X-9569Y86399D1*
X-9724Y86595D1*
X-9778Y86685D1*
X-10199D1*
X-10195Y86265D1*
Y86035D1*
X-11379D1*
X-11375Y85175D1*
Y85075D1*
X-12887D1*
X-12885Y82835D1*
X-14715D1*
Y85365D1*
X-14516D1*
X-14515Y85674D1*
X-14555Y85787D1*
X-14580Y85909D1*
X-14584Y86038D1*
X-14865Y86035D1*
Y88765D1*
X-14740D1*
X32813Y66590D2*
X32890D1*
Y64610D1*
X31310D1*
Y66590D1*
X31384D1*
X31385Y75737D1*
X30885Y75735D1*
Y75934D1*
X30412Y75935D1*
X30415Y75735D1*
X27885D1*
Y77565D1*
X30415D1*
Y77366D1*
X30888Y77365D1*
X30885Y77565D1*
X33415D1*
Y75735D1*
X32817D1*
X32815Y74725D1*
Y66588D1*
X29435Y66590D2*
X30990D1*
Y64610D1*
X29410D1*
Y66590D1*
X29435D1*
X30910Y80465D2*
X33415D1*
Y78635D1*
X30885D1*
Y80465D1*
X30910D1*
X2110Y66275D2*
X2072Y66028D1*
X1996Y65790D1*
X1884Y65567D1*
X1739Y65364D1*
X1564Y65185D1*
X1364Y65036D1*
X1143Y64919D1*
X907Y64837D1*
X662Y64793D1*
X412Y64787D1*
X164Y64820D1*
X-75Y64891D1*
X-301Y64998D1*
X-508Y65138D1*
X-690Y65308D1*
X-844Y65505D1*
X-966Y65723D1*
X-1053Y65957D1*
X-1103Y66202D1*
X-1114Y66451D1*
X-1087Y66700D1*
X-1022Y66941D1*
X-920Y67169D1*
X-785Y67379D1*
X-618Y67565D1*
X-425Y67724D1*
X-210Y67850D1*
X22Y67943D1*
X265Y67998D1*
X514Y68015D1*
X763Y67993D1*
X1006Y67934D1*
X1236Y67837D1*
X1449Y67707D1*
X1639Y67545D1*
X1802Y67355D1*
X1934Y67143D1*
X2031Y66913D1*
X2092Y66671D1*
X2115Y66422D1*
X2110Y66275D1*
Y71275D2*
X2072Y71028D1*
X1996Y70790D1*
X1884Y70567D1*
X1739Y70364D1*
X1564Y70185D1*
X1364Y70036D1*
X1143Y69919D1*
X907Y69837D1*
X662Y69793D1*
X412Y69787D1*
X164Y69820D1*
X-75Y69891D1*
X-301Y69998D1*
X-508Y70138D1*
X-690Y70308D1*
X-844Y70505D1*
X-966Y70723D1*
X-1053Y70957D1*
X-1103Y71202D1*
X-1114Y71451D1*
X-1087Y71700D1*
X-1022Y71941D1*
X-920Y72169D1*
X-785Y72379D1*
X-618Y72565D1*
X-425Y72724D1*
X-210Y72850D1*
X22Y72943D1*
X265Y72998D1*
X514Y73015D1*
X763Y72993D1*
X1006Y72934D1*
X1236Y72837D1*
X1449Y72707D1*
X1639Y72545D1*
X1802Y72355D1*
X1934Y72143D1*
X2031Y71913D1*
X2092Y71671D1*
X2115Y71422D1*
X2110Y71275D1*
X9126Y61275D2*
X9106Y61026D1*
X9066Y60779D1*
X9007Y60536D1*
X8928Y60299D1*
X8831Y60069D1*
X8716Y59847D1*
X8583Y59635D1*
X8434Y59435D1*
X8269Y59247D1*
X8090Y59072D1*
X7898Y58913D1*
X7693Y58769D1*
X7478Y58643D1*
X7253Y58533D1*
X7020Y58443D1*
X6781Y58371D1*
X6536Y58318D1*
X6289Y58285D1*
X6039Y58272D1*
X5789Y58279D1*
X5541Y58306D1*
X5295Y58352D1*
X5054Y58418D1*
X4819Y58503D1*
X4592Y58607D1*
X4373Y58728D1*
X4165Y58866D1*
X3969Y59021D1*
X3785Y59191D1*
X3616Y59375D1*
X3462Y59571D1*
X3324Y59780D1*
X3203Y59999D1*
X3100Y60226D1*
X3016Y60462D1*
X2950Y60703D1*
X2904Y60949D1*
X2878Y61197D1*
X2872Y61447D1*
X2886Y61697D1*
X2919Y61944D1*
X2973Y62188D1*
X3045Y62428D1*
X3137Y62660D1*
X3246Y62885D1*
X3374Y63100D1*
X3518Y63304D1*
X3678Y63496D1*
X3853Y63675D1*
X4041Y63839D1*
X4242Y63988D1*
X4454Y64120D1*
X4676Y64234D1*
X4907Y64331D1*
X5144Y64409D1*
X5387Y64468D1*
X5634Y64507D1*
X5883Y64526D1*
X6133D1*
X6382Y64505D1*
X6629Y64464D1*
X6871Y64405D1*
X7108Y64325D1*
X7338Y64228D1*
X7560Y64112D1*
X7771Y63978D1*
X7972Y63829D1*
X8159Y63664D1*
X8333Y63484D1*
X8492Y63291D1*
X8635Y63086D1*
X8761Y62871D1*
X8870Y62645D1*
X8960Y62412D1*
X9031Y62173D1*
X9083Y61928D1*
X9116Y61681D1*
X9128Y61400D1*
X9126Y61275D1*
X10522Y90785D2*
X11915D1*
Y90711D1*
X12335Y90715D1*
X13115Y90711D1*
X13230Y90715D1*
X14385D1*
Y90117D1*
X14700Y90115D1*
X14824Y90104D1*
X14945Y90072D1*
X15058Y90019D1*
X15206Y89906D1*
X16396Y88715D1*
X23604D1*
X24088Y89199D1*
X24085Y90525D1*
Y90802D1*
X23203Y91685D1*
X20292Y91682D1*
X20391Y91569D1*
X20469Y91442D1*
X20524Y91302D1*
X20553Y91155D1*
X20557Y91010D1*
X20536Y90862D1*
X20496Y90738D1*
X20667Y90643D1*
X20765Y90566D1*
X20854Y90478D1*
X20931Y90380D1*
X20996Y90274D1*
X21048Y90160D1*
X21085Y90041D1*
X21108Y89918D1*
X21116Y89790D1*
X21108Y89665D1*
X21086Y89542D1*
X21049Y89423D1*
X20998Y89309D1*
X20933Y89202D1*
X20856Y89104D1*
X20768Y89016D1*
X20669Y88938D1*
X20562Y88874D1*
X20449Y88822D1*
X20329Y88785D1*
X20206Y88763D1*
X20082Y88755D1*
X19957Y88762D1*
X19834Y88785D1*
X19715Y88822D1*
X19601Y88873D1*
X19494Y88938D1*
X19396Y89015D1*
X19307Y89103D1*
X19230Y89201D1*
X19165Y89308D1*
X19114Y89422D1*
X19066Y89599D1*
X19017Y89423D1*
X18966Y89309D1*
X18901Y89202D1*
X18824Y89104D1*
X18736Y89016D1*
X18637Y88938D1*
X18530Y88874D1*
X18417Y88822D1*
X18297Y88785D1*
X18174Y88763D1*
X18050Y88755D1*
X17925Y88762D1*
X17802Y88785D1*
X17683Y88822D1*
X17569Y88873D1*
X17462Y88938D1*
X17364Y89015D1*
X17275Y89103D1*
X17198Y89201D1*
X17133Y89308D1*
X17082Y89422D1*
X17044Y89541D1*
X17022Y89664D1*
X17014Y89788D1*
X17021Y89913D1*
X17044Y90036D1*
X17081Y90155D1*
X17132Y90269D1*
X17203Y90386D1*
X16900Y90385D1*
X16776Y90396D1*
X16655Y90428D1*
X16542Y90481D1*
X16394Y90594D1*
X15806Y91183D1*
X13600Y91185D1*
X10596D1*
X10527Y91115D1*
X10525Y90781D1*
X14385Y88688D2*
Y88085D1*
X13530D1*
X13996Y87615D1*
X15477D1*
X14404Y88685D1*
X14385Y94588D2*
Y93985D1*
X13225D1*
X13375Y93915D1*
X16869Y93911D1*
X16634Y94155D1*
X16206Y94583D1*
X14387Y94585D1*
X-7040Y90915D2*
X-5864D1*
X-5865Y90985D1*
X-4195D1*
Y90911D1*
X-4075Y90915D1*
X-3324D1*
X-3325Y90985D1*
X-1655D1*
Y90911D1*
X-1535Y90915D1*
X-784D1*
X-785Y90985D1*
X885D1*
Y90911D1*
X1005Y90915D1*
X2085D1*
Y88285D1*
X884D1*
X885Y88215D1*
X-785D1*
Y88289D1*
X-905Y88285D1*
X-1656D1*
X-1655Y88215D1*
X-3325D1*
Y88289D1*
X-3445Y88285D1*
X-4196D1*
X-4195Y88215D1*
X-5865D1*
Y88289D1*
X-5985Y88285D1*
X-7065D1*
Y90915D1*
X-7040D1*
X-5795Y96815D2*
X-5744D1*
X-5745Y97137D1*
X-6395Y97783D1*
X-7924Y97785D1*
X-7707Y97691D1*
X-7498Y97555D1*
X-7315Y97385D1*
X-7164Y97186D1*
X-7048Y96965D1*
X-6996Y96814D1*
X-5741Y96815D1*
X-29718Y83685D2*
X-29931Y83695D1*
X-30128Y83727D1*
X-30320Y83783D1*
X-30504Y83860D1*
X-30678Y83958D1*
X-30840Y84076D1*
X-30987Y84212D1*
X-31116Y84364D1*
X-31228Y84530D1*
X-31319Y84708D1*
X-31389Y84895D1*
X-31437Y85089D1*
X-31461Y85287D1*
X-31463Y85487D1*
X-31441Y85686D1*
X-31396Y85881D1*
X-31329Y86069D1*
X-31241Y86248D1*
X-31132Y86416D1*
X-31004Y86570D1*
X-30860Y86708D1*
X-30700Y86828D1*
X-30527Y86929D1*
X-30344Y87009D1*
X-30153Y87067D1*
X-29956Y87103D1*
X-29757Y87115D1*
X-29132Y87111D1*
X-28934Y87086D1*
X-28740Y87037D1*
X-28553Y86967D1*
X-28375Y86875D1*
X-28209Y86763D1*
X-28058Y86633D1*
X-27922Y86486D1*
X-27805Y86324D1*
X-27707Y86149D1*
X-27631Y85965D1*
X-27576Y85773D1*
X-27544Y85575D1*
X-27535Y85375D1*
X-27550Y85176D1*
X-27587Y84979D1*
X-27648Y84789D1*
X-27730Y84606D1*
X-27832Y84435D1*
X-27954Y84277D1*
X-28094Y84133D1*
X-28249Y84007D1*
X-28418Y83900D1*
X-28598Y83814D1*
X-28787Y83749D1*
X-28982Y83706D1*
X-29181Y83686D1*
X-29750D1*
X-9567Y95516D2*
X-9688Y95702D1*
X-9788Y95931D1*
X-9847Y96173D1*
X-9865Y96423D1*
X-9840Y96671D1*
X-9773Y96912D1*
X-9666Y97137D1*
X-9522Y97342D1*
X-9346Y97518D1*
X-9143Y97663D1*
X-8917Y97771D1*
X-8869Y97787D1*
X-7926Y97786D2*
X-7707Y97691D1*
X-7498Y97555D1*
X-7315Y97385D1*
X-7164Y97186D1*
X-7048Y96965D1*
X-6996Y96814D1*
X-19119Y97829D2*
X-18953Y97857D1*
X-18704Y97862D1*
X-18457Y97824D1*
X-18220Y97745D1*
X-18000Y97627D1*
X-17803Y97474D1*
X-17635Y97289D1*
X-17501Y97078D1*
X-17405Y96848D1*
X-17349Y96604D1*
X-17335Y96400D1*
X-17356Y96151D1*
X-17419Y95910D1*
X-17523Y95682D1*
X-17663Y95476D1*
X-17837Y95296D1*
X-18038Y95149D1*
X-18083Y95124D1*
X-5277Y98688D2*
X-4524Y97936D1*
X-4442Y97837D1*
X-4344Y97963D1*
X-3623Y98688D1*
X-4400Y98685D1*
X-5271D1*
X2800Y86815D2*
D13*
Y85800D1*
X1635D2*
X3965D1*
X11700Y84400D2*
Y83385D1*
X10535Y84400D2*
X12865D1*
X25900Y70615D2*
Y68185D1*
X24685Y69400D2*
X27115D1*
X16000Y75900D2*
Y74535D1*
X14935Y75900D2*
X17065D1*
X-8400Y92900D2*
Y91885D1*
X-9565Y92900D2*
X-7235D1*
X3900Y94315D2*
Y93300D1*
X2735D2*
X5065D1*
X18600Y60865D2*
Y58900D1*
X16635D2*
X20565D1*
X-25440Y95400D2*
Y94385D1*
X-26055Y95400D2*
X-24825D1*
X14540Y75323D2*
Y71794D1*
X12775Y73558D2*
X16305D1*
X-11260Y96700D2*
Y95335D1*
Y96700D2*
X-10195D1*
X30200Y66590D2*
Y64610D1*
X29410Y65600D2*
X30990D1*
X32150Y80465D2*
Y78635D1*
X30885Y79550D2*
X33415D1*
X6000Y96615D2*
Y93985D1*
X5235Y95300D2*
X6000D1*
X-6300Y90915D2*
Y88285D1*
X-7065Y89600D2*
X-6300D1*
X-3760Y90915D2*
Y88285D1*
X-1220Y90915D2*
Y88285D1*
X1320Y90915D2*
Y88285D1*
Y89600D2*
X2085D1*
X50Y96815D2*
Y94185D1*
X-2490Y96815D2*
Y94185D1*
X16200Y80265D2*
Y78700D1*
X15235D2*
X17165D1*
X19700Y91060D2*
X20558D1*
X-29500Y87115D2*
Y83685D1*
X-31465Y85400D2*
X-27535D1*
D18*
X21000Y23400D3*
X-1500D3*
D19*
X2800Y85800D3*
Y84100D3*
X11700Y84400D3*
Y86100D3*
D20*
X20900Y69400D3*
D21*
X25900D3*
D22*
X18900Y75900D3*
X16000D3*
D19*
X-8400Y94600D3*
Y92900D3*
X3900Y91600D3*
Y93300D3*
D18*
X-28100Y37600D3*
Y15100D3*
D23*
X17000Y45400D3*
X18600Y58900D3*
D24*
X-22140Y95400D3*
X-20800D3*
X-21470Y97600D3*
X-25440Y95400D3*
X-24100D3*
X-24770Y97600D3*
D26*
X-18800Y84100D3*
X-22100D3*
D27*
X9460Y68478D3*
D18*
X14540D3*
Y73558D3*
X9460D3*
D28*
X-12500Y20400D3*
Y35400D3*
D23*
X28500Y21400D3*
X25500Y28900D3*
D29*
X27000Y35400D3*
D30*
Y40480D3*
D31*
Y48100D3*
Y50640D3*
D32*
X-19000Y30200D3*
X-21500Y25200D3*
D22*
X-13800Y87400D3*
X-11260D3*
Y96700D3*
X-13800D3*
D35*
X32100Y65600D3*
X30200D3*
X31150Y63300D3*
D37*
X0Y33800D3*
D28*
X22500D3*
D39*
X-13800Y84100D3*
X-16700D3*
D40*
X-23200Y91000D3*
Y93900D3*
D39*
X14000Y64400D3*
X16900D3*
D40*
X-16400Y93800D3*
Y90900D3*
X29150Y79550D3*
Y76650D3*
X32150D3*
Y79550D3*
X-18800Y93800D3*
Y90900D3*
D41*
X-24500Y71400D3*
D42*
Y51400D3*
X500D3*
Y66400D3*
Y71400D3*
D43*
X6000Y89400D3*
X7270D3*
X8540D3*
X9810D3*
X11080D3*
X12350D3*
X13620D3*
Y95300D3*
X12350D3*
X11080D3*
X9810D3*
X8540D3*
X7270D3*
X6000D3*
X-6300Y89600D3*
X-5030D3*
X-3760D3*
X-2490D3*
X-1220D3*
X50D3*
X1320D3*
Y95500D3*
X50D3*
X-1220D3*
X-2490D3*
X-3760D3*
X-5030D3*
X-6300D3*
D23*
X-15700Y11400D3*
X-9420D3*
X-3140D3*
X3140D3*
X9420D3*
X15700D3*
D44*
X18500Y84600D3*
D45*
X16200Y78700D3*
X18500D3*
X20800D3*
D46*
X19700Y93600D3*
Y92330D3*
Y91060D3*
X18430Y93600D3*
Y92330D3*
Y91060D3*
D47*
X-29500Y90400D3*
D48*
Y85400D3*
D49*
X5400Y84000D3*
X9200D3*
Y86200D3*
X5400D3*
M02*
